<?xml version="1.0" encoding="UTF-8"?>
<svg xmlns="http://www.w3.org/2000/svg" viewBox="0 0 1421.61 1894.29">
  <defs>
    <style>
      .cls-1 {
        fill: #006631;
      }

      .cls-1, .cls-2, .cls-3, .cls-4, .cls-5 {
        fill-rule: evenodd;
        stroke-width: 0px;
      }

      .cls-2 {
        fill: #12181a;
      }

      .cls-3 {
        fill: #eb671d;
      }

      .cls-4 {
        fill: #056734;
      }

      .cls-5 {
        fill: #fff;
      }
    </style>
  </defs>
  <g id="Ebene_1_Kopie" data-name="Ebene 1 Kopie">
    <g>
      <path class="cls-5" d="M315.61,716.24c-3.22,0-6.43-1.04-9.11-3.08-9.35-7.15-16.97-20.73-20.55-34.41-5.45,10.63-14.68,21.6-27.11,24.33-1.07.24-2.15.35-3.22.35-4.64,0-9.1-2.16-11.97-5.96-3.53-4.68-4.02-10.99-1.24-16.15,6.18-11.48,7.72-23.87,9.2-35.84,1.78-14.36,3.62-29.22,13.43-41.55,10.71-13.47,28.25-20.65,55.19-22.6,1.87-.14,3.82-.21,5.77-.21,13.42,0,25.66,3.28,37.49,6.45,10.43,2.8,20.28,5.44,29.95,5.52h.51c15.17,0,26.84-6.51,35.65-19.9,3-4.51,5.46-11.1,7.83-17.49,1.23-3.32,2.51-6.75,3.91-10.04,3.78-8.95,9.46-18.36,17.87-29.57,7.05-9.31,25.84-31.8,49-40.95.05-.02.1-.04.15-.06,5.76-2.2,14.24-4.83,21.92-4.83,9.48,0,15.04,3.91,18.03,7.19,2.87,3.15,6.13,8.69,5.36,17.23-1.28,14.79-13.58,22.69-21.72,27.91-1.68,1.08-3.26,2.09-4.42,2.95-.04.03-.09.06-.13.1-12.64,9.18-22.49,24.64-27.03,42.42-.02.06-1.44,5.36-1.44,5.36-13.32,52.67-43,80.76-96.22,91.07-9.8,1.97-19.64,2.22-27.13,2.22-3.79,0-7.54-.07-11.18-.15-3.54-.07-6.88-.14-10.16-.14-5.48,0-12.52.16-18.32,1.45-4.29.94-9.72,3.55-10.99,7.81-1.17,4.17-.55,5.68,1.47,10.61,1.28,3.13,2.88,7.02,3.89,11.88,1.27,6.13-1.4,12.41-6.7,15.75-2.45,1.54-5.22,2.3-7.98,2.3Z"/>
      <path class="cls-5" d="M276.16,662.8l2.44-9.56c3.05-12.2,20.75-25.02,33.76-25.02-2.85,3.46-9.76,15.66-10.78,19.93l-2.24,8.75c-3.25,13.02,5.9,36.41,16.27,44.34-2.24-10.78-8.95-16.07-5.08-29.7,2.85-9.76,12-16.07,22.17-18.31,19.32-4.27,44.95,1.02,67.12-3.46,49.42-9.56,73.22-34.98,84.61-80.14l1.42-5.29c4.88-19.12,15.66-38.44,32.75-50.85,7.12-5.29,19.32-10.58,20.14-20.14,1.22-13.22-18.1-6.92-25.02-4.27-16.47,6.51-32.34,22.58-42.51,36-6.1,8.14-12.2,17.29-16.07,26.44-4.07,9.56-7.32,21.36-13.02,29.9-10.98,16.68-27.25,26.85-48.81,26.64-24.81-.2-47.39-13.63-72-11.8-73.02,5.29-42.92,49.83-65.7,92.14,10.17-2.24,18.31-16.88,20.54-25.63Z"/>
      <path class="cls-5" d="M460.43,304.58c-3.39,0-6.73-1.15-9.44-3.34-4.03-3.26-6.09-8.37-5.45-13.52.78-6.23,1.55-12.63,2.35-19.16,10.79-89.02,24.22-199.81,87.92-264.11,2.9-2.93,6.76-4.44,10.66-4.44,2.8,0,5.61.78,8.1,2.38,5.96,3.83,8.43,11.3,5.92,17.92-22.81,60.34-38.26,119.7-46.11,177.01,9.98-7.56,21.68-13.14,35.54-13.14,3.33,0,6.7.34,10.03,1,5.19,1.03,9.46,4.72,11.22,9.71,1.76,4.99.77,10.54-2.62,14.61-23.83,28.56-24.35,32.36-23.77,73.57.06,4.29-1.72,8.4-4.89,11.29-2.78,2.53-6.39,3.92-10.11,3.92-.53,0-1.06-.03-1.58-.08-4.32-.46-9.18-.69-14.45-.69-19.75,0-39.68,3.22-48.41,6.25-1.6.56-3.27.83-4.92.83Z"/>
      <path class="cls-5" d="M529.78,283.27c-.61-43.53.61-51.46,27.25-83.39-27.66-5.49-46.98,22.17-62.03,38.44,5.29-73.02,22.78-147.46,51.46-223.32-64.68,65.29-75.05,186.71-86.03,274.58,14.64-5.08,46.37-8.75,69.36-6.31Z"/>
      <path class="cls-5" d="M512.09,619.23c-3.98,0-7.87-1.58-10.74-4.53-4.04-4.14-5.34-10.22-3.34-15.65,2.21-6.01,6.11-10.88,10.53-14.99-2.79-2.71-4.43-6.41-4.53-10.34-.12-4.46,1.75-8.74,5.1-11.68,4.11-3.61,9.57-6.47,15.89-9.79,3.95-2.07,12.04-6.32,16.2-9.73-3.08-.55-5.97-2.05-8.2-4.38-3.63-3.78-5.02-9.17-3.68-14.24,2.7-10.18,10.97-18.34,19.54-24.13-.87-1.77-1.39-3.71-1.51-5.73-.08-1.42.04-2.82.34-4.18-4.44-1.05-8.2-4.08-10.15-8.26-1.79-3.83-1.86-8.2-.28-12.03-48.2,11.51-79.78,48.83-97.81,78.22-2.73,4.45-7.57,7.15-12.78,7.15-.06,0-.12,0-.18,0-4.29-.05-8.3-1.93-11.07-5.08-4.93,13.06-8.27,25.59-5.46,37.75,1.3,5.63-.74,11.51-5.26,15.11-2.71,2.16-6.02,3.27-9.36,3.27-2.23,0-4.46-.49-6.54-1.5-19.03-9.23-39.86-41.48-45.66-52.05-12.7-23.12-16.7-49.68-10.97-72.85,4.54-18.44,21.61-38.52,45.43-41.2.83-.1,1.72-.19,2.59-.28.87-.09,1.95-.2,2.94-.33.18-2.17.23-4.18.27-6.29.12-5.16.25-11,2.26-19.06,4.51-17.88,10.51-24.2,18.48-31.17,2.86-2.5,5.32-4.65,8.29-8.59,1.85-2.44,1.75-7.09,1.36-14.47-.37-7-.78-14.93,1.35-23.47.04-.16.08-.32.13-.48l.76-2.65c4.95-19.13,17.87-34.62,37.39-44.81,15.73-8.21,35.65-12.73,56.09-12.73,5.53,0,10.98.32,16.3.96,44.96-87.38,43.14-135.99,39.28-238.3-.22-5.94-.45-12.05-.68-18.35-.22-6.13,3.31-11.77,8.91-14.25,1.95-.87,4.02-1.29,6.08-1.29,3.83,0,7.61,1.47,10.47,4.26,37.84,36.87,50.48,125.82,48.95,198.28,7.7-24.86,14.18-51.77,18.68-70.46.91-3.78,1.75-7.27,2.52-10.41,1.57-6.39,7.12-11.02,13.68-11.4.3-.02.59-.03.89-.03,6.22,0,11.84,3.86,14.04,9.74,18.1,48.33-4.62,119.36-24.36,173.06,93.34.36,189.57,9.93,265.09,71.56,5.79,4.73,7.22,13.01,3.34,19.4-2.79,4.61-7.72,7.22-12.83,7.22-1.98,0-4-.4-5.92-1.22-52.26-22.47-98.28-33.87-136.8-33.87-11.73,0-22.83,1.06-33.22,3.18,10.68,6.27,21.82,13.96,32.7,22.67,12.17,9.74,41.53,35.04,51.41,59.64,2.45,6.11.63,13.1-4.48,17.24-2.74,2.22-6.09,3.35-9.44,3.35-2.9,0-5.81-.84-8.35-2.54-14.15-9.48-26.47-16.91-38.52-22.95,28.77,31.94,52.47,67.21,71.74,106.62,3.4,6.95.95,15.35-5.65,19.38-2.43,1.49-5.14,2.2-7.81,2.2-4.58,0-9.09-2.1-12.02-6.01-32.86-43.87-52.98-68.93-89.64-83.13.66,9.06.35,18.02-.99,26.05-4.04,24.11-16.7,40.87-36.62,48.48-1.74.66-3.55.99-5.35.99-3.63,0-7.21-1.32-10.01-3.82-4.18-3.74-5.93-9.51-4.52-14.95,2.44-9.39,3.98-22.8-2.52-33.38-4.97-8.1-14.14-13.66-27.26-16.54-2.1-.46-4.16-.7-6.13-.7-9.87,0-15.52,5.84-16.55,8.81.43.18,1.08.4,1.99.6,6.91,1.49,11.84,7.6,11.84,14.66v1.06c0,4.36.02,10.03-1.41,15.89.57-.01,1.13-.02,1.67-.02,4.87,0,9.44,2.36,12.25,6.34,2.81,3.98,3.52,9.07,1.89,13.66-7.12,20.11-45.15,45.45-58.4,51.69-14.38,6.85-28.69,10.52-42.52,14.07-8.4,2.15-16.34,4.19-24.33,6.9-1.58.54-3.21.8-4.82.8ZM548.08,433.16c-.45,3.17.16,6.66.81,10.36.71,4.01,1.43,8.15.92,12.6,2.75-2.43,6.37-5.66,7.36-6.8,6.26-7.46,9.68-14.54,12.57-26.09,1.72-6.86.77-10.06.25-10.72-.15-.19-.95-.47-2.19-.47-6.89,0-17.57,7.34-19.73,21.12Z"/>
      <path class="cls-5" d="M395.34,591.01c-5.08-21.97,4.47-42.71,12.61-62.85,2.44-9.36-1.83-18.1-12.41-20.34-3.86-.81-7.93-1.83-11.8-1.02,2.03-11.19,8.95-21.97,23.59-18.71,24.81,5.49,14.24,43.12,19.32,51.86,23.59-38.44,58.78-73.83,108.2-85.22.81-5.49-3.05-14.03-1.63-23.8,6.31-40.88,62.03-47.8,51.05-4.07-3.05,12.2-7.12,21.97-15.66,32.14-3.25,3.86-16.47,14.64-17.49,16.27,13.02,1.83,24.81,7.53,11.19,17.9,4.47,2.64,6.51,3.86,8.75,12-9.56,3.25-24.61,12.61-27.25,22.58,14.64-3.25,16.88,5.9,14.24,16.07-3.46,13.83-30.71,22.17-39.05,29.49,5.7,4.47,11.19,5.9,18.1,7.73-6.92,6.1-21.36,13.22-25.02,23.19,22.17-7.53,43.93-10.17,65.29-20.34,13.83-6.51,45.97-29.9,50.64-43.12-8.14,0-20.34,1.83-24.81-6.71,9.97-6.31,9.56-15.66,9.56-25.22-29.29-6.31-8.95-45.97,27.05-38.03,38.03,8.34,49.42,36.2,41.09,68.34,33.56-12.81,30.92-58.37,24-81.97,58.17,13.83,81.76,43.73,120.61,95.59-30.92-63.25-70.78-110.24-117.15-149.09,42.92,9.56,68.75,21.56,105.76,46.37-12.81-31.93-75.25-80.95-110.65-89.49,67.93-35.59,158.24-6.51,216.41,18.51-80.75-65.9-188.14-68.75-277.22-68.14,19.93-53.09,50.44-133.43,31.93-182.85-9.97,40.68-32.34,141.97-59.19,152.14,16.68-65.7,11.39-216.21-36-262.38,4.27,118.37,9.56,171.26-45.36,273.77-38.44-8.34-93.15,3.25-103.53,43.93l-.81,2.85c-3.86,15.46,3.66,31.53-5.29,43.32-11.19,14.85-18.51,11.8-24.2,34.37-2.64,10.58-1.22,16.07-2.44,25.83-1.22,10.58-9.76,10.37-18.51,11.39-16.27,1.83-29.09,15.86-32.54,29.9-5.08,20.54-.61,43.53,9.56,62.03,6.92,12.61,25.63,39.25,39.05,45.76Z"/>
      <path class="cls-5" d="M724.63,1894.29c-2.72,0-5.45-.74-7.86-2.22-106.69-65.6-195.7-129.82-271.92-196.21-74.24-5.19-150.23-15.01-225.97-29.22-6.76-1.27-11.76-6.96-12.2-13.75l-6.62,5.26c-2.68,2.13-5.98,3.26-9.33,3.26-1.12,0-2.25-.12-3.36-.38l-167.39-38.44c-6.63-1.52-11.4-7.31-11.63-14.1l-2.64-76.88c-.17-4.85,2.03-9.49,5.89-12.44,2.65-2.02,5.85-3.08,9.1-3.08.76,0,1.52.06,2.28.17l-2.05-65.24-6.3-1.2c-6.87-1.31-11.93-7.2-12.18-14.2L0,1367.48c-.24-6.81,4.14-12.93,10.67-14.9l75.66-22.78c1.41-.42,2.86-.64,4.32-.64.63,0,1.26.04,1.89.12l68.33,8.67c-34.83-70.15-61.91-145.11-80.62-223.25-22.21-92.74-33.47-193.39-33.47-299.15,0-5.74,3.28-10.98,8.44-13.49,163.07-79.33,333.34-129.2,506.36-148.33-.83-9.02-.37-16.55,1.44-23.63,0,0,1.23-5.14,1.26-5.22,3.57-13.81,9.16-20.74,17.03-27.89l2.82-11.45c1.9-8.4,5.3-13.84,9.83-19.39,4.14-5.22,9-8.63,15.29-10.73.43-.14.83-.27,1.23-.39l1.32-.73c2.24-1.24,4.74-1.89,7.28-1.89.5,0,1,.02,1.49.07l2.03.2c.14.01.28.03.41.05,5.43.7,13.23,1.7,20.61,5.06,7.41-15.73,22.2-25.9,39.11-26.13.2,0,.48,0,.76,0,7.21,0,14.24,1.85,20.54,5.25.87-.84,1.79-1.63,2.76-2.38.05-.04.11-.08.16-.12,6.09-4.51,13.67-6.9,21.94-6.9,3.1,0,6.24.34,9.34,1,9.77,1.93,19.23,6.77,26.67,13.64.06.06.12.11.18.17,4.91,4.69,8.81,10,11.62,15.73,3.91-1.09,8.11-1.66,12.5-1.66,3.77,0,7.61.42,11.41,1.24,10.59,2.35,18.74,7.74,23.63,15.59,4.7,7.53,5.96,16.59,3.64,26.18-.05.2-.1.4-.16.61l-.36,1.24c-1.87,7.16-4.82,12.19-8.05,16.47.73,1.34,1.46,2.76,2.13,4.24,3.08,6.62,4.61,12.91,4.63,19.01,1.17.22,2.34.45,3.5.68,26.55-46.62,30.2-98.99,10.1-148.55-20.86-52.16-56.82-89.09-116.62-119.82-5.01-2.58-8.16-7.75-8.14-13.39.02-5.64,3.2-10.79,8.23-13.34,15.07-7.62,43.44-8.76,59.01-8.76,17.05,0,32.84,1.32,43.33,3.63l34.09,7.47c-16.71-8.47-34.9-16.13-54.1-20.26l-27.64-5.89c-8.41-1.75-20.87-3.35-30.94-3.97-.06,0-.13,0-.19-.01-5.78-.43-10.79-.84-16.31-1.42-.79-.04-1.69-.07-2.67-.11-6.18-.24-11.2-.48-14.72-1.04-1.87-.25-9.38-.61-22.87-.61-18.79,0-31.18.67-33.64,1.12-.96.19-1.92.28-2.87.28-4.24,0-8.33-1.8-11.2-5.03-3.52-3.96-4.69-9.49-3.08-14.54l12.41-38.85c1.51-4.74,5.28-8.42,10.06-9.83,3.21-.94,8.81-1.82,27.94-1.82,12.81,0,28.33.44,34.24.83,19.84,1.38,42.99,3.4,64.59,8.03.04,0,11.09,2.46,11.09,2.46,71.64,15.43,138.38,52.62,183,102.01,20.64,22.75,36.52,48.07,48.52,77.39,8.14,19.72,17.5,57.73,17.26,85.32,24.55,8.46,49.72,25.41,64.07,39.92,18.5,18.32,28.48,31.08,35.33,54.07,17.86,2.22,32.03,9.7,42.21,22.32,9.11,11.29,14.64,26.13,16.78,45.18,15.83,8.87,27,25.55,30.64,46.42.32,1.66.59,3.38.83,5.13,52.38,19.03,104.72,41.23,155.72,66.04,5.16,2.51,8.44,7.75,8.44,13.49-.04,105.28-11.22,205.49-33.22,297.84-18.52,77.73-45.3,152.31-79.72,222.12l18.84-2.56c.67-.09,1.34-.14,2.02-.14,1.64,0,3.27.27,4.83.8l57.36,19.53c1.66.57,3.21,1.42,4.58,2.52l38.85,31.32c3.76,3.03,5.83,7.7,5.56,12.52l-2.44,43.12c-.29,5.18-3.22,9.73-7.57,12.2l3.53,2.7c3.92,3,6.12,7.73,5.87,12.65l-3.87,78.92c-.16,3.29-1.4,6.44-3.53,8.95l-45.76,54.1c-1.99,2.35-4.64,4.03-7.62,4.81l-91.53,24.2c-1.27.33-2.55.5-3.83.5-3.4,0-6.74-1.16-9.45-3.35l-14.97-12.14-.25,9.81c-.18,7.04-5.23,13.01-12.15,14.35l-74.85,14.44c-.95.18-1.9.27-2.85.27-5.32,0-10.34-2.84-13.04-7.59l-6.94-12.22-.2,10.99c-.14,7.41-5.67,13.61-13.02,14.59l-99.29,13.19c-79.1,70.57-172.49,138.65-285.34,208.04-2.41,1.48-5.13,2.22-7.86,2.22Z"/>
      <path class="cls-5" d="M1404.17,1441.79l2.44-43.12-38.85-31.32-57.36-19.53-47.27,6.41c78.38-148.1,124.27-323.86,124.35-538.69-53.64-26.1-108.08-49-163.21-68.65-.23-4.57-.74-9.1-1.54-13.32-2.85-16.47-12.2-33.15-30.1-39.05-2.03-37.83-17.08-63.25-56.54-63.25-6.1-26.64-14.03-37.83-34.17-57.76-16.27-16.47-45.76-34.37-69.36-39.46,4.07-23.19-6.1-68.54-15.25-90.71-10.98-26.85-25.83-51.05-45.76-73.02-43.73-48.41-109.02-83.19-175.12-97.42l-10.98-2.44c-19.93-4.27-41.9-6.31-62.44-7.73-9.15-.61-50.03-1.63-56.95.41l-12.41,38.85c8.34-1.63,53.29-1.83,61.63-.61,3.66.61,12,.81,16.27,1.02,5.7.61,10.78,1.02,16.27,1.42,9.97.61,23.39,2.24,33.15,4.27l27.66,5.9c30.31,6.51,57.15,20.54,83.19,35.39,11.8,6.71,53.09,39.86,57.56,50.03-5.29-1.63-15.46-7.12-21.36-9.56-7.32-3.25-14.44-6.31-21.97-9.36-11.39-4.88-34.98-13.83-47.59-16.47l-36.2-7.93c-22.17-4.88-75.05-4.88-92.34,3.86,58.58,30.1,100.07,68.54,123.66,127.53,23.59,58.17,16.88,118.78-16.68,171.05-9.38-2.07-18.78-3.86-28.19-5.39l1.55-6.2c1.83-6.51.41-12.61-2.44-18.71-1.83-4.07-4.47-7.93-6.51-12,.61-1.02,1.22-1.83,2.03-2.64,4.68-5.49,7.73-9.15,9.56-16.27l.41-1.42c2.85-11.8-3.05-20.75-15.86-23.59-12.2-2.64-25.02.41-30.51,10.78.61-10.78-3.25-21.36-12.2-29.9-5.29-4.88-12.2-8.54-19.53-9.97-6.51-1.42-13.83-.81-19.32,3.25-4.27,3.25-6.1,7.93-6.31,13.02,0,1.42,0,2.64.2,3.86-.61-1.02-1.22-2.24-2.03-3.46-5.49-7.93-14.44-13.42-24.81-13.22-14.85.2-24.81,11.39-28.07,24l-.2.81c-3.25,13.22-2.03,18.51,1.63,30.1-8.54,10.58-13.02,14.64-16.68,29.29-2.16,8.48-1.74,15.05.04,22.72-3.7.63-7.38,1.3-11.06,2.01,1.7-3.14,3.32-6.35,4.11-9.48l1.63-6.51c1.02-7.12,0-14.24-2.24-20.95,7.12-5.08,12.81-14.64,14.64-21.56l.41-1.42c1.83-6.71,1.83-14.24-3.25-19.73-5.49-5.9-14.85-7.32-22.78-8.34l-2.03-.2-1.83,1.02c-1.02.61-2.03.81-3.25,1.22-3.66,1.22-6.1,3.05-8.34,5.9-3.66,4.47-5.69,7.93-6.92,13.42l-3.25,13.22-.61,2.85c-8.75,7.53-13.02,11.8-16.07,23.59l-1.22,5.08c-1.63,6.31-1.63,12.81-1.02,19.12.41,3.86,1.42,6.71,3.05,10.37.5,1.16.98,2.32,1.26,3.59-178.7,17.56-352.7,67.81-519.09,148.75,0,215.84,46.34,392.29,125.46,540.87l-96.58-12.25-75.66,22.78,2.44,68.14,18.1,3.46,3.05,97.22c-6.1-1.42-12-2.85-17.9-4.68l2.64,76.88,167.39,38.44,30.71-24.41.2,29.9c75.62,14.18,152,24.15,229.28,29.34,83.14,72.91,175.71,137.8,273.71,198.05,103.12-63.4,200.21-131.93,286.64-209.52l103.87-13.8,1.22-65.7,33.97,59.8,74.85-14.44,1.02-40.27,38.64,31.32,91.53-24.2,45.76-54.1,3.86-78.92-28.47-21.76,26.64-5.9ZM1124.43,826.42c3.07-2.61,5.49-5.81,7.16-9.55,2.19.68,4.38,1.37,6.57,2.06-2.07,3.29-3.47,6.79-4.92,10.24-2.93-.93-5.87-1.85-8.81-2.76ZM1096.66,1404.92c1.07-1.51,2.13-3.03,3.19-4.54l-.37,8.27-2.83-3.72ZM550.53,1629.73l-.05,7.44c-.43-.36-.87-.72-1.3-1.08l1.36-6.36ZM845.57,1659.32l11.41,11.32c-4.29,3.33-8.6,6.63-12.93,9.92l.16-20.19c.45-.35.9-.7,1.36-1.05ZM1138.9,1368.19l-18.72,1.8c87.55-136.64,137.82-294.99,149.34-490.58-13.08-5.48-26.16-10.77-39.24-15.88-.21-3.16-1.15-6.01-3.07-8.32-3.86-4.68-10.17-5.69-16.27-5.08-3.16.28-6.62,1.11-10.01,2.27-4.13-1.52-8.27-3.03-12.4-4.52,2.37-3.05,4.43-6.34,6.18-9.75,30.01,10.88,59.7,22.75,89.05,35.59-7.72,181.19-52.08,345.21-144.86,494.47ZM1100.7,691.28c-9.36,3.52-15.96,7-21.42,11.88-8.73-2.16-17.48-4.26-26.24-6.26,11.35-8.49,24.09-10.73,47.66-5.62ZM1042.84,694.6c-11.18-2.48-22.38-4.82-33.6-7.03,1.97-4.5,3.92-8.97,5.84-13.38,15.46,3.29,23.6,8.84,27.76,20.41ZM763.48,598.73c0,2.64.41,5.29.81,8.14.2,1.83.61,3.86.81,5.69-5.29,5.7-11.8,15.25-13.42,21.56l-1.22,5.08c-.72,2.8-.95,5.36-.78,7.75-3.67-.17-7.34-.32-11-.41.03-2.18.18-4.35.8-6.53.61-2.64,1.42-4.47,3.66-6.1,3.46-2.64,6.31-4.07,9.36-7.53,4.07-4.68,6.1-8.75,6.92-14.64.41-3.05.61-5.29,2.03-8.34.61-1.63,1.42-3.05,2.03-4.68ZM712.23,571.68c.41.81.81,1.63,1.22,2.44,2.03,3.66,5.08,8.34,5.9,12.2.61,3.66-1.22,6.71-3.86,9.56-6.1,6.51-13.22,13.02-16.68,21.15-3.25,7.53-2.64,15.25.41,22.78.99,2.42,2.04,4.78,3.1,7.1-3.46.16-6.92.35-10.37.57.89-2.08,1.63-4.24,2.18-6.46,3.05-12,1.02-18.31-1.02-29.08,10.78-10.98,21.36-25.63,19.12-40.27ZM357.35,805.17c-4.79,5.26-9.47,10.63-14.03,16.13-54.27,16.1-108.06,35.54-161.95,58.12,11.54,195.95,61.69,354.34,150.25,491.64l-20.61-1.59c-93.37-149.54-137.91-313.91-145.51-495.74,62.49-27.34,126.5-50.3,191.84-68.55ZM613.25,1686.68l29.74.58c26.37,19.37,53.85,38.54,82.46,57.58l6.71-4.47c27.69-18.43,54.35-37.03,79.97-55.86l27.73-.77c-37.31,28.19-75.88,54.98-115.23,80.63-38-24.77-75.27-50.59-111.39-77.69Z"/>
      <path class="cls-5" d="M1149.92,625.53c-5.51,0-10.65-3.04-13.27-8.01-17.5-33.22-49.36-60.61-94.69-81.43-4.85-2.23-8.15-6.86-8.67-12.17-8.21-83.96-38.62-140.13-101.71-187.8-48.8-36.77-156.71-69.03-230.92-69.03-10.07,0-19.37.59-27.65,1.75-.7.1-1.39.15-2.08.15-4.37,0-8.56-1.91-11.43-5.29-3.33-3.91-4.42-9.26-2.9-14.16,6.47-20.84,12.71-48.95,15.53-69.95.41-3.09,1.78-5.98,3.92-8.26,12.97-13.84,59.59-60.01,115.15-72.9,1.13-.26,2.27-.39,3.39-.39,5.86,0,11.32,3.45,13.75,9.01,2.89,6.63.64,14.37-5.35,18.42-5.88,3.98-10.88,7.76-15.15,11.54,48.74-15.98,107.19-25.3,147.51-26.36.13,0,.27,0,.4,0,7.23,0,13.45,5.17,14.75,12.31,1.32,7.28-2.85,14.43-9.84,16.86-25.99,9.01-49.62,18.06-66.86,31.05,34.63-8,73.17-12.39,110.86-12.39,20.66,0,40.81,1.33,59.91,3.97,6.51.9,11.68,5.93,12.75,12.41,1.07,6.48-2.2,12.91-8.08,15.86q-1.47.73-14.96,4.4c-12.87,3.5-39.06,10.62-44.81,12.43,4.3.78,8.65,1.69,13.28,2.68,6.23,1.33,10.83,6.41,11.71,12.54,28.14-2.09,58.7-3.23,88.6-3.23,50.86,0,97.48,3.11,138.56,9.24,7.54,1.13,13.04,7.73,12.78,15.35s-6.2,13.83-13.8,14.44c-50.27,4-113.32,19.31-153.02,33.96,43.48,18.73,96.3,49.89,118.37,78.63,4.15,5.4,4.14,12.92-.03,18.31-2.91,3.76-7.33,5.82-11.87,5.82-1.97,0-3.95-.39-5.85-1.19-19.19-8.13-47.23-17.82-71.88-17.82-6.26,0-11.92.64-16.96,1.91,29.75,30.89,71.78,82.74,98.68,150.98,2.47,6.26.46,13.4-4.91,17.46-2.68,2.02-5.86,3.04-9.05,3.04s-6.41-1.02-9.09-3.07c-7.13-5.44-12.8-9.62-17.95-12.85,9.13,23.16,14.8,50.88,7.42,80.42-1.51,6.03-6.58,10.51-12.76,11.25-.6.07-1.2.11-1.8.11Z"/>
      <path class="cls-5" d="M940.64,324.16c71.59,54.1,99.66,117.15,107.59,198.31,27.46,12.61,75.86,39.05,101.7,88.07,8.95-35.8-3.66-70.17-21.76-101.7,23.39,2.24,34.58,9.56,55.93,25.83-25.02-63.46-67.53-120.2-110.03-160.48,30.1-24.61,84-9.15,120,6.1-26.24-34.17-103.32-73.83-145.43-86.24,36.81-23.8,137.09-46.17,190.78-50.44-100.88-15.05-222.51-8.95-284.75.81,11.39-9.97,21.97-16.07,44.95-19.53-22.78-4.88-35.19-6.71-66.31-4.27,13.22-11.8,33.36-21.15,50.64-27.05,6.51-2.24,58.17-16.07,58.58-16.27-75.26-10.37-156,1.63-207.46,20.54,14.64-41.49,60.2-58.17,100.68-72.2-54.31,1.42-136.27,17.9-184.07,42.1,6.92-25.02,20.34-39.46,42.92-54.71-39.46,9.15-80.54,39.66-107.59,68.54-3.05,22.78-9.56,51.46-16.07,72.41,76.88-10.78,211.12,26.03,269.7,70.17Z"/>
    </g>
  </g>
  <g id="Ebene_1" data-name="Ebene 1">
    <g>
      <path class="cls-2" d="M732.16,1740.37l-6.71,4.47c-338.85-225.56-520.68-468.41-544.07-865.43,175.73-73.63,350.44-113.9,544.07-113.9s368.34,40.27,544.07,113.9c-23.39,397.22-206.65,640.89-537.36,860.96Z"/>
      <path class="cls-2" d="M724.63,659.75c-229.22,0-452.14,53.29-662.85,155.8,0,542.45,292.68,836.14,662.85,1063.74,370.17-227.6,662.65-521.09,662.85-1063.74-210.71-102.51-433.63-155.8-662.85-155.8ZM165.51,873.72c175.73-76.88,363.46-119.19,559.12-119.19s383.39,42.31,559.12,119.19c-10.98,257.9-96.2,481.02-289.63,676.28-80.14,80.95-172.48,151.12-269.49,214.37-97.02-63.25-189.36-133.22-269.49-214.37-193.63-195.26-278.85-418.17-289.63-676.28Z"/>
      <path class="cls-4" d="M537.51,777.92c24.41-3.66,67.73-9.97,68.34-10.17l-11.59-3.46-2.44-.41-9.15-2.85-45.76-9.76-9.76-1.22-3.05-.81-9.76-1.22-.81-.41c-2.44-.61-5.9-1.02-9.36-1.42l33.36,31.73Z"/>
      <path class="cls-4" d="M794.8,616.02c3.66-6.71,9.97-9.76,12.41-19.73l.41-1.42c2.24-8.95-1.83-15.05-11.39-17.08-10.78-2.44-22.58.41-25.42,11.39l-.81,2.85c-2.24,8.95.81,14.85,1.02,22.78-4.47,4.07-12,14.64-13.63,20.75l-1.22,5.08c-3.05,12,5.29,18.71,13.63,25.83,1.02,5.08,1.22,13.83-.2,19.53l-1.02,3.66c-2.44,9.76-9.36,13.22-16.68,19.53,16.07-.2,33.15-16.27,36.81-30.51l1.63-6.51c1.42-5.9,10.17-10.78,12-18.1l2.03-8.14c3.46-11.8-5.9-21.15-9.56-29.9Z"/>
      <path class="cls-4" d="M734.19,684.57c4.68-18.51-4.88-30.92-1.02-45.76,2.64-10.17,8.34-9.15,14.24-15.86,8.14-9.36,3.86-13.02,8.34-21.76,23.39-46.58-40.07-67.93-40.88-41.29-.41,14.64,19.12,23.8,4.68,39.46-10.58,11.59-22.58,20.95-15.25,38.64,5.49,13.42,11.39,22.17,15.05,37.02,1.63,6.31,2.03,17.08-.41,23.39-2.64,6.92-11.8,15.86-12.41,17.08,11.39,1.02,25.42-21.56,27.66-30.92Z"/>
      <path class="cls-4" d="M686.6,610.12c12-11.59,27.05-30.51,15.86-47.19-11.39-17.08-36.41-13.42-42.1,9.15l-.2.81c-3.25,13.22-1.42,17.49,2.44,29.9-8.95,11.39-13.42,14.24-17.29,29.29-2.44,9.56-1.22,16.07,1.22,25.42,2.64,9.76-1.42,16.27,1.02,25.63,2.24,8.14,4.47,13.83,10.78,19.93,4.07,4.07,14.44,13.22,20.14,13.63,0-.2-9.15-10.78-11.39-16.68-2.64-7.12-2.64-15.46-.81-22.78,2.44-9.36,3.66-12.61,10.78-19.12,5.69-5.08,9.36-11.39,11.19-18.51,3.05-12,.41-17.9-1.63-29.49Z"/>
      <path class="cls-4" d="M625.18,616.23c7.12-2.44,14.24-13.63,16.07-20.34l.41-1.42c4.07-16.47-6.31-19.73-21.15-21.36-4.27,2.44-6.1.81-10.17,5.9-3.25,3.86-4.68,6.51-5.9,11.39l-3.25,13.22-1.02,4.47c-8.34,7.32-12.61,10.58-15.66,21.97l-1.22,5.08c-1.42,5.69-1.42,11.8-1.02,17.49.61,6.31,3.46,9.15,4.27,14.44,1.83,10.37,3.66,18.51,9.76,27.46,7.93,11.8,30.51,36,44.95,40.47-.61-1.22-10.58-10.78-12.61-12.81-3.66-3.86-7.32-9.15-10.17-13.63-5.49-9.15-9.15-25.42-6.51-35.59l.61-2.24c.81-3.05,5.49-8.14,7.53-12,1.83-3.66,5.49-9.56,6.51-13.63l1.63-6.51c1.42-7.93-.41-15.46-3.05-22.37Z"/>
      <path class="cls-4" d="M1225.79,788.5c-1.42,6.51-3.05,12.61-8.14,16.07-7.73-15.46-17.7-25.63-37.02-28.68,1.22-15.86-5.9-30.1-17.49-38.03-15.66-10.98-39.05-10.98-56.14,4.27-8.75-8.75-21.97-22.98-40.07-22.58,8.54-15.46,16.47-21.76,33.76-28.27-29.08-6.31-41.7-1.42-55.53,12.61-3.05-18.1-10.98-25.63-30.1-29.7-6.92,15.86-14.24,32.54-21.15,48.41,93.56,58.17,159.66,143.19,192.41,238.17,38.03,110.44,31.12,234.1-30.1,345.56-61.02,111.26-164.34,188.95-282.31,224.54-117.97,35.59-250.38,28.88-369.36-28.07-118.98-56.95-201.97-153.76-240-264.21-37.83-110.44-30.92-234.51,30.1-345.77,61.02-111.26,164.34-188.95,282.31-224.54,82.78-25.02,172.48-29.08,259.93-9.76,33.56-52.27,40.27-112.88,16.68-171.05-23.59-58.98-65.09-97.42-123.66-127.53,17.29-8.75,70.17-8.75,92.34-3.86l36.2,7.93c12.61,2.64,36.2,11.59,47.59,16.47,7.53,3.05,14.64,6.1,21.97,9.36,5.9,2.44,16.07,7.93,21.36,9.56-4.47-10.17-45.76-43.32-57.56-50.03-26.03-14.85-52.88-28.88-83.19-35.39l-27.66-5.9c-9.76-2.03-23.19-3.66-33.15-4.27-5.49-.41-10.58-.81-16.27-1.42-4.27-.2-12.61-.41-16.27-1.02-8.34-1.22-53.29-1.02-61.63.61l12.41-38.85c6.92-2.03,47.8-1.02,56.95-.41,20.54,1.42,42.51,3.46,62.44,7.73l10.98,2.44c66.1,14.24,131.39,49.02,175.12,97.42,19.93,21.97,34.78,46.17,45.76,73.02,9.15,22.17,19.32,67.53,15.25,90.71,23.59,5.08,53.09,22.98,69.36,39.46,20.14,19.93,28.07,31.12,34.17,57.76,39.46,0,54.51,25.42,56.54,63.25,17.9,5.9,27.25,22.58,30.1,39.05,1.63,8.54,2.03,18.31,1.42,27.25-.41,9.56,4.27,16.47,1.63,27.66Z"/>
      <path class="cls-4" d="M485.85,564.36c4.88-19.12,15.66-38.44,32.75-50.85,7.12-5.29,19.32-10.58,20.14-20.14,1.22-13.22-18.1-6.92-25.02-4.27-16.47,6.51-32.34,22.58-42.51,36-6.1,8.14-12.2,17.29-16.07,26.44-4.07,9.56-7.32,21.36-13.02,29.9-10.98,16.68-27.25,26.85-48.81,26.64-24.81-.2-47.39-13.63-72-11.8-73.02,5.29-42.92,49.83-65.7,92.14,10.17-2.24,18.31-16.88,20.54-25.63l2.44-9.56c3.05-12.2,20.75-25.02,33.76-25.02-2.85,3.46-9.76,15.66-10.78,19.93l-2.24,8.75c-3.25,13.02,5.9,36.41,16.27,44.34-2.24-10.78-8.95-16.07-5.08-29.7,2.85-9.76,12-16.07,22.17-18.31,19.32-4.27,44.95,1.02,67.12-3.46,49.42-9.56,73.22-34.98,84.61-80.14l1.42-5.29Z"/>
      <path class="cls-4" d="M460.43,289.58c14.64-5.08,46.37-8.75,69.36-6.31-.61-43.53.61-51.46,27.25-83.39-27.66-5.49-46.98,22.17-62.03,38.44,5.29-73.02,22.78-147.46,51.46-223.32-64.68,65.29-75.05,186.71-86.03,274.58Z"/>
      <path class="cls-1" d="M534.06,291.61c-38.44-8.34-93.15,3.25-103.53,43.93l-.81,2.85c-3.86,15.46,3.66,31.53-5.29,43.32-11.19,14.85-18.51,11.8-24.2,34.37-2.64,10.58-1.22,16.07-2.44,25.83-1.22,10.58-9.76,10.37-18.51,11.39-16.27,1.83-29.09,15.86-32.54,29.9-5.08,20.54-.61,43.53,9.56,62.03,6.92,12.61,25.63,39.25,39.05,45.76-5.08-21.97,4.47-42.71,12.61-62.85,2.44-9.36-1.83-18.1-12.41-20.34-3.86-.81-7.93-1.83-11.8-1.02,2.03-11.19,8.95-21.97,23.59-18.71,24.81,5.49,14.24,43.12,19.32,51.86,23.59-38.44,58.78-73.83,108.2-85.22.81-5.49-3.05-14.03-1.63-23.8,6.31-40.88,62.03-47.8,51.05-4.07-3.05,12.2-7.12,21.97-15.66,32.14-3.25,3.86-16.47,14.64-17.49,16.27,13.02,1.83,24.81,7.53,11.19,17.9,4.47,2.64,6.51,3.86,8.75,12-9.56,3.25-24.61,12.61-27.25,22.58,14.64-3.25,16.88,5.9,14.24,16.07-3.46,13.83-30.71,22.17-39.05,29.49,5.7,4.47,11.19,5.9,18.1,7.73-6.92,6.1-21.36,13.22-25.02,23.19,22.17-7.53,43.93-10.17,65.29-20.34,13.83-6.51,45.97-29.9,50.64-43.12-8.14,0-20.34,1.83-24.81-6.71,9.97-6.31,9.56-15.66,9.56-25.22-29.29-6.31-8.95-45.97,27.05-38.03,38.03,8.34,49.42,36.2,41.09,68.34,33.56-12.81,30.92-58.37,24-81.97,58.17,13.83,81.76,43.73,120.61,95.59-30.92-63.25-70.78-110.24-117.15-149.09,42.92,9.56,68.75,21.56,105.76,46.37-12.81-31.93-75.25-80.95-110.65-89.49,67.93-35.59,158.24-6.51,216.41,18.51-80.75-65.9-188.14-68.75-277.22-68.14,19.93-53.09,50.44-133.42,31.93-182.85-9.97,40.68-32.34,141.97-59.19,152.14,16.68-65.7,11.39-216.21-36-262.38,4.27,118.37,9.56,171.26-45.36,273.77Z"/>
      <path class="cls-5" d="M813.31,723.21c-69.36-29.49-139.12-44.34-200.54-42.92-9.97,2.44-20.14,5.08-29.9,7.93-113.49,33.97-212.95,108-271.73,213.97-16.88,30.51-29.49,61.83-37.83,93.76,43.73-53.9,88.27-97.83,133.02-132,58.78-44.95,117.76-72.81,175.12-83.8,20.54-3.86,41.29-7.53,61.42-10.98,69.15-11.8,132.41-22.58,170.44-45.97ZM886.53,760.02c-69.15,52.88-137.29,127.93-205.22,218.65-91.73,122.65-182.65,273.97-273.16,437.09-59.19-51.05-102.1-114.71-126.31-184.07-22.58-64.68-28.68-134.24-16.27-202.98,49.22-64.27,99.46-115.53,149.9-153.97,56.95-43.53,113.7-70.37,168.61-80.95,20.75-3.86,41.29-7.53,61.22-10.98,72.81-12.41,138.92-23.8,179.39-50.44,1.42-.81,2.64-1.83,3.86-2.64,19.53,9.15,38.85,19.12,57.97,30.31ZM956.5,807.21c-27.86,31.53-23.59,86.85-17.9,158.85,2.44,30.51,5.08,63.86,5.49,99.66,1.02,68.95-5.08,146.44-28.27,227.19-21.76,76.27-58.98,155.39-119.8,233.09-93.76,13.42-192.61.61-283.32-42.51-34.17-16.27-65.29-36-93.15-58.37,90.92-163.73,182.04-315.66,273.97-438.72,68.34-91.32,136.88-166.58,206.04-218.65,8.14,5.08,16.27,10.37,24.41,15.66,11.19,7.73,21.97,15.66,32.54,23.8ZM1182.47,1184.5c-3.86-28.27-9.76-55.73-17.7-81.97-35.39-118.58-108.81-215.39-196.88-286.38-24,27.25-19.73,80.14-14.24,148.88,2.44,30.71,5.08,64.48,5.69,100.68,1.02,69.97-5.08,148.68-28.68,231.05-21.15,73.83-56.34,150.51-113.29,225.97,17.29-3.25,34.37-7.32,51.05-12.41,113.49-33.97,213.15-108,271.73-213.97,19.93-36.41,33.97-74.03,42.31-111.87ZM978.67,806.4c12.61-9.36,27.66-13.22,44.54-12,14.24,1.02,29.9,5.7,46.78,13.63,45.36,46.17,78.92,100.48,99.26,158.65,19.12,55.12,26.44,113.7,20.54,172.27-3.05-13.63-6.51-27.05-10.37-40.27-36.2-120.81-111.26-219.66-200.75-292.27ZM911.96,759.01c6.92,4.47,14.03,8.95,20.75,13.63,11.59,7.93,22.98,16.07,34.17,24.81,16.07-12.81,35.39-18.31,57.15-16.68,6.31.41,13.02,1.63,19.73,3.25-24.41-21.15-51.66-40.27-81.56-56.54-16.68,8.95-33.36,19.53-50.24,31.53ZM840.16,719.75c19.73,9.15,39.46,19.53,58.78,31.12,16.07-11.8,32.34-22.17,48.61-31.32-3.05-1.63-6.31-3.05-9.36-4.47-27.86-13.22-56.34-23.59-85.22-31.12.61,4.07.41,8.14-.2,12.2-1.83,8.14-5.9,16.27-12.61,23.59ZM674.4,669.92c53.49-5.49,108.41-2.44,162.1,9.76,1.63,4.68,2.03,9.36,1.22,13.83-1.22,6.92-5.29,13.63-11.8,19.73-51.05-22.17-102.71-37.02-151.53-43.32Z"/>
      <path class="cls-5" d="M766.94,583.07c5.49-10.37,18.31-13.42,30.51-10.78,12.81,2.85,18.71,11.8,15.86,23.59l-.41,1.42c-1.83,7.12-4.88,10.78-9.56,16.27-.81.81-1.42,1.63-2.03,2.64,2.03,4.07,4.68,7.93,6.51,12,2.85,6.1,4.27,12.2,2.44,18.71l-2.03,8.14c-.41,1.42-.81,2.64-1.42,3.86-1.02,1.83-2.03,3.46-3.46,5.08-1.63,2.03-6.71,6.92-7.12,9.15l-1.63,6.51c-4.27,16.47-23.59,34.58-42.51,34.78l-15.05.2,10.98-9.56c6.1-5.29,12.81-8.95,14.85-16.88l1.02-3.66c1.02-4.07,1.02-10.78.41-15.46-9.56-8.34-17.29-16.47-13.83-29.9l1.22-5.08c1.63-6.31,8.14-15.86,13.42-21.56-.2-1.83-.61-3.86-.81-5.69-.41-2.85-.81-5.49-.81-8.14-.61,1.63-1.42,3.05-2.03,4.68-1.42,3.05-1.63,5.29-2.03,8.34-.81,5.9-2.85,9.97-6.92,14.64-3.05,3.46-5.9,4.88-9.36,7.53-2.24,1.63-3.05,3.46-3.66,6.1-.81,2.85-.81,5.7-.81,8.54.41,5.29,1.63,10.78,2.44,16.07,1.02,7.12,1.02,13.83-.81,20.95-3.05,11.8-18.51,36.61-33.97,34.98l-7.32-.81,2.44-6.51c.61-1.63,2.64-3.66,3.86-5.08,1.83-2.03,3.46-4.07,5.08-6.31,1.22-1.63,2.64-3.86,3.46-5.69,2.03-5.08,1.63-15.05.2-20.14-3.25-13.02-9.76-23.8-14.85-36.2-3.05-7.53-3.66-15.25-.41-22.78,3.46-8.14,10.58-14.64,16.68-21.15,2.64-2.85,4.47-5.9,3.86-9.56-.81-3.86-3.86-8.54-5.9-12.2-.41-.81-.81-1.63-1.22-2.44,2.24,14.64-8.34,29.29-19.12,40.27,2.03,10.78,4.07,17.08,1.02,29.08-2.03,8.14-6.31,15.46-12.81,21.15-6.51,5.7-7.12,8.34-9.15,16.47-1.63,6.31-1.83,13.42.61,19.73.81,2.03,2.44,4.47,3.66,6.31,1.42,1.83,7.32,9.15,7.93,10.78l2.24,7.73-8.54-.81c-7.53-.81-18.51-10.17-23.8-15.46-7.12-6.92-9.76-13.42-12.2-22.37-1.22-4.68-1.22-8.75-.61-13.42.41-4.27.81-7.93-.41-12.2-2.85-10.17-4.07-17.7-1.42-28.07,3.66-14.64,8.14-18.71,16.68-29.29-3.66-11.59-4.88-16.88-1.63-30.1l.2-.81c3.25-12.61,13.22-23.8,28.07-24,10.37-.2,19.32,5.29,24.81,13.22.81,1.22,1.42,2.44,2.03,3.46-.2-1.22-.2-2.44-.2-3.86.2-5.08,2.03-9.76,6.31-13.02,5.49-4.07,12.81-4.68,19.32-3.25,7.32,1.42,14.24,5.08,19.53,9.97,8.95,8.54,12.81,19.12,12.2,29.9ZM1164.57,864.77c-1.83,3.05-3.05,6.1-4.88,9.36-2.85,5.08-6.71,8.75-11.39,12.41-3.86,3.05-8.54,5.29-13.22,6.92-6.1,2.24-3.86,2.24-9.15,6.1-17.29,13.22-37.22,17.9-58.98,13.22l-4.68-1.02c-5.9-1.22-14.44-3.25-18.71-7.12l-15.66-14.03,21.15,4.88c15.66,3.66,35.19-1.63,47.59-10.78,7.53-5.49,11.39-10.37,14.85-18.51,4.47-10.17,7.12-16.68,15.05-25.42,6.51-7.12,7.32-16.68,13.42-24.41,6.31-8.14,8.95-14.24,17.7-21.15,8.14-6.51,18.92-9.97,29.08-5.49,13.42,5.9,16.88,20.95,13.63,33.15-4.27,17.7-16.27,36.2-35.8,41.9ZM1134.47,807.21c2.64-2.24,5.29-4.07,8.34-6.1,5.69-3.86,10.37-7.73,15.05-12.81,8.95-9.97,15.25-24.2,6.92-36.41-7.93-11.8-22.98-19.12-36.81-10.58-4.68,3.05-9.97,9.56-12.2,14.44-1.63,3.66-3.05,7.12-3.46,10.98,0,.81-.2,1.42-.2,2.24-10.78,0-20.95,9.76-26.85,16.88-4.88,5.9-11.39,15.46-13.22,22.78l-3.46,13.83c-.61,2.03-.61,3.86-.41,5.9,0,1.02.2,1.42,0,2.44l-2.64,10.17c-.61,2.85-6.51,9.76-8.75,11.8-4.27,3.66-9.76,5.69-13.83,9.56l-11.39,9.97,15.46-.41c15.46-.41,36.41-15.66,47.19-25.63,3.25-3.05,6.51-7.32,8.95-10.98.2-.2.61-.81.81-1.02.41-.2,1.42-.2,2.03-.2,2.03-.2,3.86-.41,5.69-1.02,11.19-3.25,18.92-10.37,21.56-20.95l.61-2.24.61-2.64ZM632.09,618.67c7.12-5.08,12.81-14.64,14.64-21.56l.41-1.42c1.83-6.71,1.83-14.24-3.25-19.73-5.49-5.9-14.85-7.32-22.78-8.34l-2.03-.2-1.83,1.02c-1.02.61-2.03.81-3.25,1.22-3.66,1.22-6.1,3.05-8.34,5.9-3.66,4.47-5.69,7.93-6.92,13.42l-3.25,13.22-.61,2.85c-8.75,7.53-13.02,11.8-16.07,23.59l-1.22,5.08c-1.63,6.31-1.63,12.81-1.02,19.12.41,3.86,1.42,6.71,3.05,10.37.61,1.42,1.22,2.85,1.42,4.47,1.83,10.98,4.07,19.93,10.58,29.49,8.75,13.22,32.14,37.83,48,42.71l12.2,3.66-4.88-10.98c-1.42-3.25-10.58-10.98-13.63-14.24-3.46-3.66-6.71-8.34-9.36-12.61-4.88-7.93-8.14-22.78-5.9-31.73l.61-2.24c.41-1.22,2.64-4.07,3.46-5.29,1.22-1.83,2.64-3.66,3.66-5.69,2.44-4.68,5.7-9.76,6.92-14.64l1.63-6.51c1.02-7.12,0-14.24-2.24-20.95ZM1011.42,830.4c1.83-7.32,4.68-14.03,11.8-17.9,3.66-2.03,7.93-3.25,11.8-4.47,5.69-1.83,10.78-3.86,16.07-6.71,4.68-2.64,8.34-6.31,11.59-10.17,4.07-4.68,4.47-3.66,9.76-7.32,9.56-6.51,16.27-14.85,18.92-25.63,2.24-9.15.81-18.71-7.12-25.22-7.32-5.9-17.49-7.12-26.64-5.08-10.98,2.64-19.93,9.76-25.83,18.71-7.32,11.39-12.2,15.05-22.78,23.39-12.41,10.17-18.1,17.29-21.76,32.54l-.2.81c-2.85,11.59-1.22,26.44,1.63,37.83,1.42,5.7,7.93,28.68,11.59,32.14l8.54,7.93,1.42-10.98c.41-2.85-.81-9.15-1.63-17.29-.41-5.49,0-11.19,1.22-16.68l1.63-5.9ZM1159.69,898.13c-5.69,5.49-12.2,10.58-19.12,14.64-3.66,2.03-8.75,4.27-13.02,5.69-4.68,1.63-11.39,2.03-15.66,4.07l-14.03,7.12,15.66,3.05c8.14,1.63,27.66-.41,36-2.24,10.98-2.24,18.92-5.49,29.29-9.36,4.47-1.63,9.36-4.27,13.63-6.51,4.27-2.24,9.56-4.68,13.22-7.32,12-8.14,32.54-38.85,21.56-52.07-3.86-4.68-10.17-5.7-16.27-5.08-6.92.61-15.25,3.86-21.15,7.32-12.2,7.12-27.66,16.27-31.12,30.1-.81,3.66-.41,7.32,1.02,10.58Z"/>
      <path class="cls-4" d="M686.6,610.12c12-11.59,27.05-30.51,15.86-47.19-11.39-17.08-36.41-13.42-42.1,9.15l-.2.81c-3.25,13.22-1.42,17.49,2.44,29.9-8.95,11.39-13.63,14.24-17.29,29.49-2.44,9.56-1.22,16.07,1.22,25.42,2.64,9.76-1.42,16.27,1.02,25.63,2.24,8.14,4.47,13.83,10.78,19.93,4.07,4.07,14.44,13.22,20.14,13.63,0-.2-9.15-10.78-11.39-16.68-2.64-7.12-2.64-15.46-.81-22.78,2.44-9.36,3.66-12.61,10.78-19.12,5.69-5.08,9.36-11.39,11.19-18.51,3.05-12.2.41-18.1-1.63-29.7ZM1160.5,860.09c18.92-4.27,30.1-22.37,34.17-38.64,5.49-21.97-13.83-37.83-33.15-22.37-8.75,6.92-10.58,12.2-16.88,20.14-6.31,8.14-5.9,16.47-13.83,24.81-16.47,17.9-10.17,29.08-30.92,44.54-13.83,10.37-35.39,15.86-52.68,11.8,3.25,2.85,10.78,4.68,16.07,5.7l4.68,1.02c20.14,4.47,38.24,0,53.9-12,5.9-4.47,2.85-4.07,10.78-7.12,3.86-1.42,8.14-3.46,11.39-6.1,12-8.75,9.76-10.98,16.47-21.76ZM734.19,684.57c-2.44,9.36-16.27,31.93-27.46,30.71.41-1.22,9.76-10.37,12.41-17.08,2.44-6.1,2.03-17.08.41-23.39-3.66-14.64-9.56-23.59-15.05-37.02-7.32-17.7,4.68-27.05,15.25-38.64,14.44-15.66-5.08-24.81-4.68-39.46.81-26.85,64.27-5.29,40.88,41.29-4.47,8.75-.2,12.41-8.34,21.76-5.9,6.71-11.59,5.9-14.24,15.86-4.07,15.05,5.49,27.46.81,45.97ZM1129.18,804.16l-1.02,4.47-.61,2.24c-2.24,8.75-8.34,14.24-17.7,17.08-6.1,1.83-8.34-.61-11.8,4.68-2.03,3.05-5.49,7.53-8.14,9.97-9.36,8.54-29.49,23.59-43.12,24,3.66-3.25,9.15-5.29,13.83-9.56,3.46-3.05,9.56-10.58,10.58-14.44l2.64-10.17c1.02-3.66-.41-4.68.41-8.34l3.46-13.83c2.64-10.58,22.17-38.44,36.41-35.19l3.25.61c1.22-8.14-.41-8.54,3.66-17.49,1.83-3.86,6.31-9.56,10.17-12,10.98-6.92,22.37-.2,28.47,8.95,6.71,9.97.61,21.97-6.51,30.1-8.95,9.56-15.25,11.39-24,18.92ZM625.18,616.23c2.85,7.12,4.68,14.64,2.64,22.17l-1.63,6.51c-1.02,3.86-4.47,9.76-6.51,13.63-2.03,3.86-6.71,8.95-7.53,12l-.61,2.24c-2.64,10.17,1.02,26.44,6.51,35.59,2.64,4.47,6.51,9.76,10.17,13.63,1.83,2.03,12,11.39,12.61,12.81-14.44-4.47-37.02-28.68-44.95-40.47-6.1-8.95-7.93-17.08-9.76-27.46-.81-5.29-3.66-8.14-4.27-14.44-.61-5.49-.41-11.8,1.02-17.49l1.22-5.08c2.85-11.39,7.12-14.85,15.66-21.97l1.02-4.47,3.25-13.22c1.22-4.88,2.64-7.53,5.9-11.39,4.27-4.88,6.1-3.46,10.17-5.9,14.85,1.63,25.22,4.88,21.15,21.36l-.41,1.42c-1.42,6.92-8.54,18.1-15.66,20.54ZM1005.72,829.18l-1.42,5.9c-1.42,5.9-1.83,12.2-1.42,18.31.2,2.24,1.63,15.66,1.63,16.27-2.03-1.83-8.95-25.22-10.17-29.49-2.64-10.58-4.27-24.81-1.63-35.39l.2-.81c3.66-14.24,8.54-20.34,19.93-29.7,11.19-9.15,15.86-12.2,23.8-24.81,17.29-27.05,55.73-20.14,48.81,7.32-2.44,9.56-8.34,16.68-16.68,22.37-6.1,4.07-5.29,2.03-10.78,8.14-3.05,3.25-6.31,6.71-10.17,8.95-19.32,11.19-35.39,5.69-42.1,32.95ZM794.8,616.02c3.66-6.71,9.97-9.76,12.41-19.73l.41-1.42c2.24-8.95-1.83-15.05-11.39-17.08-10.78-2.44-22.58.41-25.42,11.39l-.81,2.85c-2.24,8.95.81,14.85,1.02,22.78-4.47,4.07-12,14.64-13.63,20.75l-1.22,5.08c-3.05,12,5.29,18.71,13.63,25.83,1.02,5.08,1.22,13.83-.2,19.53l-1.02,3.66c-2.44,9.76-9.36,13.22-16.68,19.53,16.07-.2,33.15-16.27,36.81-30.51l1.63-6.51c1.42-5.9,10.17-10.78,12-18.1l2.03-8.14c3.46-11.8-5.9-21.15-9.56-29.9ZM1211.55,855.82c27.86-2.44,4.07,38.24-9.36,47.39-3.46,2.44-21.36,11.59-25.63,13.22-10.78,4.07-16.07,6.51-28.27,8.95-7.53,1.63-26.64,3.66-33.56,2.24,2.44-1.22,10.78-2.44,15.05-3.86,3.86-1.42,10.58-4.27,14.03-6.31,8.54-4.88,16.27-11.39,22.98-18.51-2.03-3.05-3.25-6.51-2.44-9.97,3.05-12.2,18.1-20.75,28.68-26.85,5.29-2.85,12.61-5.9,18.51-6.31Z"/>
      <path class="cls-3" d="M1000.64,1211.15l14.44,3.25-.41,25.83,1.83,3.05,22.58-22.58,46.98,13.83-.61,26.64-8.14,6.31-.61,33.36,5.29,1.83.41-14.85,30.71,10.58-1.02,41.7-35.8,6.1c-56.14-14.64-112.27-28.07-168.41-39.66l-.2-7.32c-1.83,2.03-3.66,4.27-5.49,6.31l-41.7-5.29-.2-7.53-9.15,6.51-58.78-4.88,1.63-40.68-10.58-.61-1.63,40.68-49.42-1.22.61-40.27c-3.46,0-6.92,0-10.37-.2.2,13.83.41,26.44.41,40.27-52.27-.2-104.14,3.66-156.41,6.51-1.63-2.24-3.25-4.47-4.68-6.71l-8.75,8.14-35.19,4.47-6.92-4.68.2,5.69-40.68,7.12-5.9-4.68.2,5.9-38.24,8.54-4.68-2.85-4.88,5.49-50.64,14.85-36.41-6.1-1.63-25.63,6.1-2.44-2.44-39.05-6.1,2.24-2.03-28.88,59.19-18.92,18.1,14.03,12.81,2.64,9.76-27.05,10.17-2.24-16.88-12.81-1.42-26.85,6.92-1.83-1.83-39.66-6.71,2.03-1.42-29.7,90.31-17.49,13.63,32.95,11.19-36.61,33.56-3.66,25.83,68.34-2.44-70.58,42.51-2.85,13.83,22.17-.61-22.78,47.39-1.42.61,10.17,11.19-10.17,42.1.2,8.95,8.54-.41-8.14c82.78,4.47,162.92,13.63,241.02,26.64l18.92,21.97-.41,28.68c-3.05,2.24-5.9,4.27-8.95,6.31l7.73,17.7,9.15,2.24-.41,26.85-16.68,12.2Z"/>
      <path class="cls-5" d="M1074.67,1241.45c-8.75-2.64-17.49-5.29-26.24-7.73,0,2.85-.2,5.69-.2,8.54,2.24.61,4.27,1.22,6.51,1.83-.2,9.97-.2,20.14-.41,30.1-.2,9.97-.41,20.14-.61,30.1-2.44-.61-4.47-1.22-6.71-1.83v8.34c18.1,5.29,36,10.98,54.1,17.29,0-7.93.41-15.46.61-23.39-3.05-1.02-5.9-2.03-8.54-3.05,0,4.88-.2,9.97-.41,15.05-9.15-3.05-18.1-5.9-27.66-8.95,0-9.97.41-20.14.61-30.1.2-9.97.41-19.93.61-30.1,2.64.81,5.29,1.63,7.93,2.44.2-2.85.2-5.69.41-8.54Z"/>
      <path class="cls-5" d="M1003.08,1222.13c-8.95-2.03-17.9-3.86-27.05-5.9v8.54c2.24.41,4.47.81,6.92,1.42-.2,9.97-.2,20.14-.2,30.1s-.2,20.14-.41,30.1c-2.24-.41-4.47-1.02-6.92-1.42v8.34c18.92,4.07,37.63,8.54,55.93,13.22,0-7.73.2-15.46.2-23.39-2.85-.81-5.69-1.63-8.75-2.24,0,5.08,0,10.17-.2,15.05-9.36-2.24-18.92-4.68-28.47-6.92.2-9.97.2-20.14.41-30.1,0-10.17.2-20.14.2-30.1,2.85.61,5.49,1.22,8.34,1.83v-8.54Z"/>
      <path class="cls-5" d="M793.58,1193.66c-24-1.02-48-1.83-71.59-2.03.2,6.1.2,12.2.2,18.51h8.34c0-3.25-.2-6.51-.2-9.76,6.92,0,13.83.2,20.95.41,0,9.97.41,20.14.41,30.1.2,9.97.41,19.93.61,29.9-2.44,0-4.88-.2-7.32-.2,0,2.64,0,5.49.2,8.14,8.95.2,17.9.41,27.05.81,0-2.64-.2-5.49-.2-8.14-2.44-.2-4.88-.2-7.12-.2-.2-9.97-.2-19.93-.41-29.9-.2-9.97-.2-19.93-.41-30.1,7.12.2,14.24.61,21.36.81,0,3.25,0,6.51.2,9.97,2.64,0,5.49.2,8.34.41-.41-6.31-.41-12.61-.41-18.71Z"/>
      <path class="cls-5" d="M709.38,1191.62c-20.34,0-41.09.41-61.63,1.22,0,2.85.2,5.69.41,8.54,2.24-.2,4.68-.2,7.12-.2,0,9.97.41,20.14.41,30.1.2,9.97.41,19.93.61,29.9-2.44,0-4.68.2-7.12.2,0,2.85.2,5.49.2,8.14,20.54-.61,40.68-1.02,61.22-1.02,0-4.88,0-9.76-.2-14.64h-9.56c0,2.24.2,4.27.2,6.51-10.78,0-21.56.2-32.14.41-.2-8.95-.41-17.9-.61-26.85,8.14-.2,16.68-.41,25.02-.41,0-2.44,0-4.88-.2-7.53-8.34,0-16.88.2-25.02.41-.2-8.54-.41-17.08-.41-25.63,10.58-.2,21.36-.41,32.14-.41.2,1.83,0,3.66.2,5.49h9.56c0-5.08,0-9.76-.2-14.24Z"/>
      <path class="cls-5" d="M924.77,1215.62c3.86,12.2,7.73,24.41,11.59,36.61-8.54-1.42-16.88-2.64-25.42-4.07l12.41-32.75,1.42.2ZM932.3,1208.3c-5.08-.81-10.17-1.63-15.25-2.44-4.27,10.78-8.75,21.56-12.81,32.54-4.07,10.78-8.34,21.76-12.61,32.75-2.03-.2-3.86-.41-5.69-.81-.2,2.64,0,5.49,0,8.14l23.19,3.05c0-2.64,0-5.49-.2-8.14l-7.53-1.02c2.03-5.9,4.27-11.59,6.71-17.49,10.37,1.63,20.75,3.25,30.92,4.88l6.31,19.32-7.32-1.22c.2,2.64,0,5.49,0,8.34,7.93,1.22,15.86,2.85,23.8,4.27v-8.34l-6.31-1.22c-3.86-12.2-7.93-24.41-11.59-36.41-3.86-12-7.73-24.2-11.59-36.2Z"/>
      <path class="cls-5" d="M631.68,1193.45c-8.54.41-17.49.81-26.03,1.42,0,2.85.2,5.69.2,8.54,2.85-.2,5.9-.41,8.95-.61-11.8,12.61-23.59,25.63-35.39,38.44-.41-11.8-.61-23.8-1.02-35.8,2.24-.2,4.27-.41,6.31-.61-.2-2.85-.2-5.69-.2-8.54-8.54.81-17.29,1.63-25.63,2.44,0,2.85,0,5.7.2,8.54,2.24-.2,4.68-.41,7.32-.61.2,10.17.41,20.14.61,30.1.2,9.97.61,19.93.81,29.7-2.44.2-4.88.41-7.32.81.2,2.64.41,5.49.41,8.14,8.34-.81,16.88-1.63,25.22-2.24-.2-2.64-.2-5.29-.2-8.14-2.24.2-4.27.41-6.31.61,0-4.47-.2-8.95-.2-13.42,6.31-7.12,12.81-14.03,19.32-21.15,5.69,10.58,11.39,21.15,17.29,31.73-2.85.2-5.49.41-8.34.61,0,2.64.2,5.29.2,8.14,8.54-.61,17.29-1.02,25.83-1.42,0-2.64-.2-5.49-.2-8.14-2.44.2-4.68.2-6.92.41-6.92-12.81-13.83-25.83-20.75-38.85,6.71-7.12,13.02-14.44,19.73-21.56,1.83,0,3.86-.2,5.69-.41.61-2.85.61-5.49.41-8.14Z"/>
      <path class="cls-5" d="M853.58,1206.67c2.03,1.83,3.86,3.86,5.9,5.9v14.64c-1.83,1.42-3.66,3.05-5.29,4.47-8.54-.81-17.08-1.42-25.63-2.24-.2-8.34-.2-16.68-.2-25.02,8.14.81,16.68,1.42,25.22,2.24ZM853.38,1239.83c2.03,2.03,4.07,4.07,6.1,6.1,0,5.29-.2,10.37,0,15.66-2.24,1.63-4.47,3.46-6.51,5.08-8.14-.81-16.27-1.42-24.41-2.03,0-8.95-.2-17.9-.2-26.85,8.34.61,16.68,1.22,25.02,2.03ZM871.69,1212.77l-14.03-14.24c-16.27-1.63-32.75-2.85-48.81-3.86v8.54l7.12.41c0,9.97,0,19.93.2,29.9.2,9.97.2,19.93.2,29.9l-7.12-.41v8.54c16.07,1.02,32.14,2.44,48.2,3.86,4.68-3.86,9.56-7.53,14.44-11.39v-19.12l-7.93-8.14,8.14-6.51c-.41-5.9-.41-11.59-.41-17.49Z"/>
      <path class="cls-5" d="M542.8,1241.45c-3.05-2.24-6.1-4.68-9.15-7.12-9.97,1.22-19.73,2.64-29.7,4.07-1.22-.81-2.44-1.63-3.66-2.64-.2-5.29-.41-10.37-.41-15.66,1.83-2.03,3.46-4.07,5.49-6.1,6.31-.81,12.61-1.63,18.92-2.64,1.63,1.42,3.46,2.85,5.29,4.27v1.42c4.07-.41,8.14-1.02,12.2-1.42v-3.46c-4.27-3.46-8.34-6.71-12.61-10.17-9.76,1.42-19.53,2.64-29.08,4.07-4.07,4.68-8.14,9.15-12.41,13.63.41,6.51.61,13.22.81,19.73,3.05,2.44,6.31,4.68,9.56,7.12,9.76-1.63,19.53-2.85,29.29-4.27,1.22.81,2.24,1.83,3.25,2.64.2,6.71.41,13.22.61,19.93-1.83,2.03-3.86,4.07-5.69,6.1-5.9.81-12,1.63-18.1,2.64-2.03-1.42-4.07-2.85-5.9-4.47,0-1.22,0-2.64-.2-3.86-3.86.61-7.93,1.22-11.8,1.83,0,1.83.2,3.66.2,5.69,4.27,3.25,8.75,6.51,13.02,9.56,9.36-1.42,18.71-2.85,27.86-3.86,4.27-4.47,8.54-8.95,13.02-13.22-.2-7.73-.41-15.86-.81-23.8Z"/>
      <path class="cls-5" d="M440.29,1225.99c4.27,10.58,8.34,21.36,12.61,31.93-8.34,1.63-16.27,3.46-24.41,5.29,3.25-12.41,6.71-24.61,10.37-37.02l1.42-.2ZM447.21,1216.03c-5.08,1.22-9.97,2.24-15.05,3.25-3.46,12.2-6.71,24.61-10.17,37.02-3.25,12.2-6.92,24.41-9.97,36.61-1.63.41-3.46,1.02-5.29,1.42.2,2.64.2,5.49.41,7.93,6.92-1.83,14.03-3.66,21.15-5.29,0-2.64-.2-5.29-.41-7.93l-7.12,1.63c1.83-6.51,3.46-13.02,5.29-19.32,9.76-2.24,19.53-4.47,29.49-6.51,2.24,5.7,4.27,11.39,6.71,16.88-2.24.41-4.47,1.02-6.92,1.42,0,2.64.2,5.29.41,8.14,7.53-1.63,15.46-3.05,23.19-4.47-.2-2.64-.2-5.29-.2-8.14l-6.1,1.02c-4.47-10.37-8.75-21.15-13.02-31.73-4.07-10.78-8.34-21.36-12.41-31.93Z"/>
      <path class="cls-5" d="M374.8,1242.67c1.83,1.22,3.66,2.64,5.49,3.66.2,4.88.41,9.76.61,14.64-1.63,2.24-3.05,4.27-4.47,6.51-7.53,2.24-15.05,4.47-22.58,6.92-.61-8.34-.81-16.68-1.42-25.02,7.32-2.24,15.05-4.47,22.37-6.71ZM376.22,1275.83c1.83,1.22,3.66,2.44,5.49,3.86.2,5.08.61,10.17.81,15.25-1.83,2.44-3.66,5.08-5.49,7.53-7.12,2.03-14.24,4.47-21.36,6.71-.41-8.75-.81-17.7-1.42-26.44,7.32-2.44,14.64-4.68,21.97-6.92ZM391.27,1242.27l-13.22-9.36c-14.44,4.47-28.88,8.95-43.12,13.83.2,2.85.41,5.69.41,8.54,2.03-.61,4.07-1.42,6.1-2.03.41,9.97,1.22,19.73,1.63,29.7l1.63,29.49c-2.03.61-4.07,1.42-6.1,2.03.2,2.85.41,5.49.61,8.34,13.83-4.88,27.86-9.15,42.1-13.63,4.07-5.49,8.14-10.98,12.41-16.47-.41-6.1-.61-12.41-1.02-18.71-2.64-1.83-5.08-3.46-7.73-5.29,2.24-3.25,4.68-6.31,7.12-9.36,0-5.49-.41-11.19-.81-17.08Z"/>
      <path class="cls-5" d="M918.87,1092.77c-20.54-2.85-41.29-5.29-61.83-7.53v8.75c2.44.2,4.88.61,7.53.81,0,10.37.2,20.54,0,30.71,0,10.17.2,20.34,0,30.51-2.44-.2-4.68-.41-7.12-.81v8.34c20.34,2.24,40.88,4.68,61.22,7.53v-15.05c-3.05-.41-6.31-1.02-9.36-1.42v6.51c-10.98-1.42-21.56-2.85-32.34-4.07-.2-9.15-.2-18.31-.2-27.46,8.34,1.02,16.88,2.03,25.22,3.25v-7.73c-8.34-1.02-16.88-2.24-25.22-3.05,0-8.75-.2-17.49-.2-26.24,10.98,1.22,21.76,2.64,32.54,4.07v5.69c3.05.41,6.31.81,9.56,1.42,0-4.47,0-9.36.2-14.24Z"/>
      <path class="cls-5" d="M844.23,1084.23c-9.56-.81-18.92-1.63-28.27-2.24v8.75c2.44.2,4.88.41,7.53.41-3.25,9.15-6.31,18.31-9.56,27.66-3.25,9.15-6.51,18.1-9.76,27.25-3.46-9.56-7.32-19.12-10.58-28.47-3.46-9.56-6.92-19.12-10.37-28.68,2.44.2,4.88.2,7.32.41v-8.75c-9.15-.41-18.51-.81-27.46-1.02,0,2.85,0,5.9.2,8.75,2.85,0,5.69.2,8.75.2,4.27,11.8,8.95,23.59,13.22,35.59,4.27,11.8,8.75,23.59,13.02,35.19,4.07.2,8.14.61,12.41.81,3.86-11.19,7.93-22.58,11.8-33.76,3.86-11.39,8.14-22.58,12.2-33.97,3.25.2,6.31.61,9.56.81v-8.95Z"/>
      <path class="cls-5" d="M986.6,1119.01l-.2,15.25c-2.03,1.63-4.27,3.05-6.51,4.68-7.93-1.63-15.86-3.25-24-4.68v-26.44c8.14,1.42,16.47,3.05,24.61,4.68,2.24,2.24,4.07,4.47,6.1,6.51ZM1005.92,1179.42l-5.9-1.22-13.63-30.31c3.86-2.64,7.53-5.29,11.59-7.93,0-6.92,0-13.63.2-20.54-4.27-4.88-8.54-9.76-12.41-14.64-16.47-3.25-32.54-6.31-48.81-8.95-.2,2.85,0,5.9-.2,8.75,2.44.41,4.68.61,6.92,1.02,0,10.37,0,20.54-.2,30.92,0,10.17-.2,20.34,0,30.51l-6.92-1.22v8.54c7.93,1.42,16.27,2.85,24.41,4.27v-8.54c-1.63-.2-3.46-.61-5.08-.81.2-8.54.2-17.29.2-26.03,6.71,1.22,13.22,2.44,19.93,3.86,4.27,9.56,8.34,19.12,12.61,28.68l-5.69-1.02v8.34c7.73,1.63,15.25,3.25,22.98,5.08v-8.75Z"/>
      <path class="cls-5" d="M675.82,1078.94c-7.93.2-15.86.41-23.59.61,0,2.85.2,5.9.2,8.75,2.24-.2,4.27-.2,6.51-.2.41,17.9.81,35.8,1.22,53.49-6.51-10.17-13.42-20.14-20.14-30.31-6.71-10.17-13.22-20.14-19.93-30.1-7.73.41-15.25.81-22.78,1.42,0,2.85.2,5.69.2,8.54,2.44-.2,4.68-.2,7.32-.41.2,10.17.61,20.34.81,30.51s.41,20.34.81,30.51c-2.44.2-5.08.41-7.53.61,0,2.85.2,5.49.2,8.34,8.14-.61,15.86-1.02,23.8-1.42,0-2.85,0-5.49-.2-8.34-2.44.2-4.88.2-7.12.41-.41-9.56-.61-19.32-.81-29.08-.2-9.76-.41-19.53-.61-29.29,7.12,10.78,14.44,21.56,21.36,32.34,7.12,10.78,14.24,21.56,21.36,32.34,4.27-.2,8.54-.2,12.81-.2-.2-11.59-.41-23.19-.61-34.58-.2-11.59-.41-23.19-.61-34.78,2.44,0,4.88-.2,7.32-.2v-8.95Z"/>
      <path class="cls-5" d="M545.04,1096.03c4.27,11.39,8.54,22.58,12.81,33.76-8.75.81-17.29,1.83-25.83,2.85,3.66-12,7.53-24.41,11.19-36.61h1.83ZM552.36,1086.47c-5.29.61-10.58,1.22-15.86,1.83-3.86,12.2-7.53,24.2-11.19,36.41-3.66,12-7.12,24.2-10.78,36.41-2.03.2-3.86.61-5.7.81.2,2.64.2,5.49.2,8.34,7.53-1.02,14.85-2.24,22.37-3.05,0-2.64-.2-5.49-.2-8.34l-7.53.81c2.03-6.51,4.07-12.81,6.1-19.32,10.37-1.22,20.75-2.44,31.32-3.66,2.24,6.1,4.47,12,6.71,17.9l-7.32.61c0,2.85.2,5.49.2,8.34,7.93-.81,16.27-1.63,24.41-2.24l-.2-8.34-6.31.41-13.02-33.56c-4.47-10.78-8.95-21.97-13.22-33.36Z"/>
      <path class="cls-5" d="M737.24,1092.98c.2,16.68.41,33.36.61,50.03-1.83,1.83-3.86,3.66-5.9,5.69-6.92-.2-14.03-.2-20.75-.2-1.83-1.83-3.86-3.66-5.69-5.7-.2-16.68-.61-33.36-.81-50.03,2.03-1.83,3.86-3.66,6.1-5.49l20.34.2c2.03,1.83,3.86,3.66,6.1,5.49ZM749.85,1091.15c-4.47-4.07-9.15-8.34-13.63-12.41-10.17-.2-20.54-.2-30.92-.2-4.47,4.07-8.95,8.14-13.63,12.2.41,18.1.61,36,1.02,54.1l13.02,12c10.37,0,20.75,0,31.53.2,4.27-3.86,8.75-7.53,13.22-11.39,0-8.95,0-18.1-.2-27.25-.2-8.95-.2-18.1-.41-27.25Z"/>
      <path class="cls-5" d="M492.36,1094.6c-7.93,1.22-15.66,2.44-23.19,3.86.2,2.85.2,5.69.2,8.75,1.22-.2,2.44-.41,4.07-.81.2,8.34.41,16.47.81,24.81-9.97,1.83-19.93,3.86-29.7,5.69-.41-8.34-.61-16.68-1.02-25.02,1.22-.2,2.44-.41,3.66-.81,0-2.85-.2-5.69-.41-8.54-7.12,1.42-14.24,2.85-21.15,4.47.2,2.85.2,5.69.61,8.54,1.83-.41,3.46-.81,5.49-1.42.41,10.17.81,20.34,1.22,30.31.41,9.97.81,20.14,1.22,30.31-1.83.41-3.66.81-5.49,1.22,0,2.85.2,5.69.41,8.54,6.92-1.63,13.83-3.05,20.95-4.68-.2-2.85-.2-5.69-.2-8.34-1.22.2-2.44.41-3.66.61-.61-8.95-.81-18.1-1.22-27.05,9.76-2.03,19.73-4.07,29.7-5.69.41,8.95.81,18.1,1.02,27.05-1.42.2-2.64.41-4.07.81.2,2.85.2,5.49.41,8.34,7.73-1.22,15.46-2.64,22.98-3.86,0-2.85-.2-5.69-.2-8.34-2.44.41-4.47.81-7.12,1.22-.2-10.17-.81-20.14-1.22-30.31-.41-10.17-.81-20.14-1.02-30.31,2.24-.41,4.68-.81,7.12-1.22-.2-2.44-.2-5.29-.2-8.14Z"/>
      <path class="cls-3" d="M38.59,1535.76l-3.05-97.22-18.1-3.46-2.44-68.14,75.66-22.78,149.09,18.92,16.88,16.07,13.83-12.81,152.95,11.8,44.75,42.51,1.02,61.83-13.42,32.95,13.83,21.15,57.15-153.56,78.51,2.03,39.86,117.76,7.93-75.05,45.97-41.7,92.95-.41,32.95,30.31,34.78-31.53,93.15-3.25,25.83,23.19.81-24.41,93.76-5.9,26.24,34.58,1.63-36.81,97.22-9.36,10.37,9.56,13.22-12.2,88.48-12,57.36,19.53,38.85,31.32-2.44,43.12-26.64,5.9,28.47,21.76-3.86,78.92-45.76,54.1-91.53,24.2-38.64-31.32-1.02,40.27-74.85,14.44-33.97-59.8-1.22,65.7-113.29,15.05-6.51-22.37-23.39,25.63-103.12,8.14-24.61-24.41-.2,25.63-146.65,4.07-21.76-17.9v18.1l-125.49-2.44.41-55.73-11.8,55.32c-107.39-2.03-212.95-13.63-317.09-33.15l-.2-29.9-30.71,24.41-167.39-38.44-2.64-76.88c5.9,1.83,11.8,3.25,17.9,4.68Z"/>
      <path class="cls-5" d="M162.46,1440.98c.2,10.98.41,22.17.61,33.15.2,10.98.41,22.17.81,33.36.2,10.98.2,22.17.41,33.15.2,10.98.41,22.17.81,33.36-4.88,3.86-9.36,7.53-14.44,11.19-21.56-4.27-42.92-8.54-64.27-13.02-.41-13.22-.81-26.44-1.02-39.66-.2-13.02-.81-26.24-1.02-39.46-.2-13.22-.81-26.44-1.22-39.66-.41-13.22-.81-26.24-1.22-39.46,21.36,3.25,42.71,6.51,64.07,9.36,5.49,6.1,10.78,11.8,16.47,17.7ZM194.19,1438.74c-11.19-12-22.58-24.2-33.97-36.2-42.31-5.49-84.81-11.59-126.92-18.31.41,7.32.61,14.64.81,21.76,5.29,1.02,10.37,1.83,15.86,2.85.41,12.81.81,25.83,1.22,38.85.41,13.02,1.02,26.03,1.42,39.25.41,13.02.81,26.03,1.02,39.05.41,13.02,1.02,26.24,1.42,39.25-5.49-1.22-10.58-2.44-15.66-3.66.41,7.12.41,14.24.61,21.36,41.29,9.76,82.58,18.92,124.27,27.05,10.58-8.14,21.56-16.27,32.54-24.61-.41-12.2-.61-24.61-.81-36.81-.2-12.2-.41-24.41-.61-36.41-.2-12.2-.41-24.41-.61-36.61-.2-12.41-.41-24.61-.61-36.81Z"/>
      <path class="cls-5" d="M377.24,1463.35c.2,13.83.2,27.66.41,41.7-5.69,5.08-11.19,10.17-17.08,15.05-20.75-2.03-42.1-3.86-63.05-6.31,0-12-.2-24-.2-35.8-.2-12-.2-23.8-.41-35.8,21.56,2.03,43.12,3.86,64.88,5.49,5.08,5.29,10.37,10.58,15.46,15.66ZM429.72,1622.4c-5.29-.41-10.37-.81-15.66-1.22-5.7-13.02-12.2-26.24-18.1-39.25-5.9-13.22-12-26.44-17.9-39.46,9.56-8.75,19.12-17.29,28.88-26.03,0-18.92,0-38.03-.2-56.95-10.78-11.59-21.97-23.39-32.75-34.78-42.92-3.25-85.42-6.92-128.14-10.98,0,7.73.41,15.66.41,23.39,6.1.61,12.2,1.22,18.31,2.03.2,13.83.41,27.46.41,41.29.2,13.83.41,27.86.41,41.7.2,13.63.41,27.46.41,41.29s.41,27.86.61,41.49c-6.1-.81-12.2-1.83-18.31-2.64.2,7.73.2,15.25.2,22.98,20.95,3.25,42.1,6.1,63.25,8.95,0-7.73-.2-15.46-.2-23.19-4.47-.41-8.95-1.22-13.22-1.63,0-12-.2-23.8-.2-35.8s-.2-24-.2-35.8c17.08,2.03,34.58,3.66,52.07,5.49,5.69,12.61,11.39,25.22,17.08,37.83,5.69,12.61,11.39,25.22,17.29,37.83-5.08-.41-9.97-1.02-14.85-1.42-.2,7.93,0,15.66,0,23.39,20.14,2.03,39.86,3.86,60,5.49.41-8.34.41-16.07.41-24Z"/>
      <path class="cls-5" d="M557.45,1459.89c5.08,16.68,10.17,33.36,15.25,50.03,5.08,16.68,10.37,33.36,15.46,49.83-22.58-.61-44.95-1.63-67.32-2.44,5.29-16.27,10.78-32.54,16.07-48.61,5.29-16.27,10.78-32.54,16.27-49.02,1.22,0,2.64,0,4.27.2ZM576.97,1435.89c-13.63-.41-27.25-.81-40.88-1.22-5.49,16.07-10.98,32.34-16.27,48.41-5.29,16.27-10.58,32.54-16.07,48.61-5.29,15.86-10.78,31.93-16.07,47.8-5.29,15.86-10.78,31.93-16.07,48-5.08-.41-9.97-.61-15.05-1.02,0,7.73.2,15.46,0,23.19,19.73,1.22,39.25,2.64,59.19,3.66v-23.39c-6.51-.41-13.02-.81-19.32-1.02,5.49-17.08,11.39-34.17,16.68-51.46,27.05,1.22,54.31,2.03,81.36,3.05,5.49,17.7,10.78,35.39,16.27,52.88-6.31-.2-12.61-.2-18.71-.41v23.39c20.54.41,41.29.81,62.24,1.02,0-7.73,0-15.66.2-23.59h-16.27c-5.08-16.47-10.17-33.15-15.25-49.63-5.08-16.47-10.17-32.75-15.25-49.22-5.08-16.47-10.37-33.15-15.46-49.83-5.08-16.27-10.17-32.75-15.25-49.22Z"/>
      <path class="cls-5" d="M819.62,1544.1c-13.63.41-27.25.81-40.68,1.02-.2,6.51-.2,13.02-.41,19.53,5.08,0,9.97-.2,15.05-.41-.2,11.59-.2,22.98-.2,34.37s-.2,22.78-.41,34.17c-22.37.61-44.95,1.02-67.12,1.42-5.08-5.29-10.17-10.37-15.25-15.66,0-11.8,0-23.59.2-35.39.2-11.59.2-23.39.41-35.19,0-11.8-.2-23.59,0-35.39.2-11.8.2-23.59.41-35.39,5.08-5.08,10.37-10.17,15.46-15.25,17.7-.2,34.98-.2,52.68-.61,4.68,4.88,9.76,9.97,14.85,14.85,0,2.44-.2,4.68-.2,7.12,8.54-.2,17.08-.41,26.03-.61,0-4.47,0-8.95-.2-13.63-10.78-10.78-21.36-21.56-32.14-32.54-25.02.41-49.83.61-74.85.61-11.39,10.98-22.58,22.17-33.56,33.15,0,12.81-.2,25.63-.2,38.44v38.64c0,12.81-.2,25.63-.41,38.24v38.44c10.98,10.98,21.97,22.17,32.95,33.15,35.8-.41,71.39-1.42,106.98-2.44,0-18.51.2-37.02.41-55.53,0-18.1.2-36.61.2-55.12Z"/>
      <path class="cls-5" d="M960.77,1469.86c0,11.59-.41,22.98-.41,34.37s-.2,22.98-.41,34.37c-.2,11.39-.2,22.78-.41,34.17,0,11.39-.41,22.98-.41,34.37-5.08,5.69-10.17,11.19-15.25,16.88-17.08,1.22-33.97,2.44-50.85,3.66-4.68-4.88-9.15-9.76-13.83-14.85,0-11.59.2-23.19.41-34.78.2-11.59.2-22.98.2-34.58s.2-23.19.41-34.78c0-11.59.41-23.19.41-34.78,5.08-5.29,10.37-10.58,15.66-16.07,16.47-.81,33.15-1.42,49.63-2.44,5.08,4.88,9.97,9.76,14.85,14.44ZM991.69,1462.13c-10.78-10.37-21.36-20.75-32.14-31.12-25.22,1.22-50.44,2.44-75.87,3.46-11.59,11.59-22.98,23.19-34.58,34.78-.2,12.61-.41,25.22-.41,37.63s-.2,25.22-.2,37.83-.2,25.02-.2,37.42-.41,25.02-.41,37.63c10.37,10.78,20.54,21.36,30.92,31.93,26.03-1.63,52.07-3.66,77.9-5.9,11.19-11.8,21.97-23.39,33.15-35.19,0-12.41.2-24.81.2-37.22s.41-24.61.61-37.02c.2-12.41.41-24.81.61-37.22.2-12.2.41-24.61.41-37.02Z"/>
      <path class="cls-5" d="M1221.72,1409.25c-18.51,2.24-36.81,4.47-55.32,6.51-.2,7.53-.41,15.05-.41,22.58,4.88-.61,10.17-1.22,15.25-1.83-.41,11.59-.81,23.19-1.02,34.78-.2,11.59-.41,23.19-.81,34.98-.2,11.59-.61,23.19-.81,34.78-.2,11.59-.41,23.19-.81,34.98-7.53-12.2-14.85-24.61-22.17-37.22-7.32-12.41-14.44-25.02-21.76-37.63-7.32-12.81-15.05-25.63-22.58-38.64-7.32-13.02-14.64-26.03-22.17-39.25-18.31,1.63-36.81,3.05-55.12,4.47-.2,7.73-.41,15.66-.41,23.59,5.69-.41,11.8-1.02,17.7-1.42-.2,13.83-.41,27.66-.61,41.29-.2,13.83-.41,27.66-.81,41.49-.2,13.63-.61,27.46-.81,41.09-.2,13.83-.61,27.46-.61,41.29-6.1.81-12.2,1.42-18.1,2.03,0,7.53-.2,15.05-.41,22.58,19.73-2.44,38.85-4.88,57.97-7.53,0-7.53.2-14.85.41-22.37-5.69.81-11.59,1.63-17.08,2.24.41-13.02.41-26.03.61-39.25.2-13.02.61-26.03.81-39.05.2-13.02.41-26.24.61-39.25.2-13.02.61-26.03.81-39.05,7.93,14.03,15.86,28.07,23.8,42.1,7.93,13.83,15.86,27.86,23.8,41.49,7.93,13.42,15.66,27.05,23.59,40.27,7.93,13.42,15.86,26.64,23.8,39.86,9.97-1.83,19.73-3.66,30.1-5.69.41-15.05.61-30.1,1.02-45.15.41-14.85.81-29.7,1.22-44.75.41-15.05.81-30.1,1.42-45.15.41-14.85.81-29.9,1.02-44.75,5.69-.81,11.39-1.42,17.29-2.24.2-7.32.41-14.85.61-22.17Z"/>
      <path class="cls-5" d="M1379.96,1483.49c-6.71-4.88-13.42-9.97-20.34-15.25-23.59,5.29-47.8,10.17-71.59,14.85-2.64-2.24-5.29-4.47-8.14-6.71.41-13.22,1.02-26.64,1.42-39.86,4.47-5.08,9.36-10.37,14.24-15.46,15.46-2.64,30.71-5.08,46.17-7.93,4.07,3.46,7.73,6.92,12,10.37,0,1.22-.2,2.24-.2,3.46,9.76-1.83,19.53-3.86,29.49-5.9,0-2.85.2-5.7.41-8.34-9.56-7.32-18.71-14.85-28.07-22.58-23.39,3.86-47.19,7.73-70.78,11.39-10.58,11.39-21.15,22.58-31.73,34.17-.41,16.88-1.02,33.97-1.42,50.85,6.92,6.1,14.24,12.2,21.36,18.1,23.8-4.68,47.39-9.56,71.19-14.64,2.24,2.03,4.47,4.07,6.92,6.1-.41,16.47-1.22,32.95-2.03,49.42-4.88,5.7-9.76,11.39-14.64,17.08-14.44,3.66-29.08,7.32-43.53,10.78-4.47-3.46-8.75-7.12-13.22-10.78.2-3.25.2-6.71.41-9.97-9.56,2.03-19.12,4.07-28.47,6.1-.2,4.88-.2,9.76-.41,14.64,9.76,8.14,19.53,15.86,29.49,23.59,22.37-5.08,44.75-10.98,66.71-16.68,10.78-12.61,21.76-25.42,32.75-37.83.2-9.76.81-19.53,1.22-29.49,0-9.97.41-19.73.81-29.49Z"/>
      <path class="cls-5" d="M905.25,414.26c-13.22,12.61-26.24,25.22-39.46,37.63-29.7-35.8-66.31-65.09-110.03-87.87,50.85-2.85,118.58,10.17,149.49,50.24Z"/>
      <path class="cls-5" d="M870.26,459.82c15.66-8.75,29.7-21.97,42.31-39.46,11.59,5.49,51.66,58.58,51.46,69.76-8.54,16.68-50.44,29.08-67.93,25.42-8.54-18.51-17.08-37.02-25.83-55.73Z"/>
      <path class="cls-5" d="M898.94,524.7c29.9-.2,47.59-9.15,70.37-25.42,10.58,27.86,13.83,44.54,18.1,74.64-23.39,16.27-54.31,19.12-79.32,13.63-.2-19.12-4.07-43.53-9.15-62.85Z"/>
      <path class="cls-5" d="M945.11,695.96c9.56,0,15.46-3.66,24.81-4.68,8.95-22.37,21.56-84.2,17.29-108.61-26.24,14.64-51.05,18.1-78.92,12,1.42,23.8-4.47,53.29-13.02,75.87,2.64,2.44,5.49,5.29,8.75,7.93,13.83,5.08,27.66,10.98,41.09,17.49Z"/>
      <path class="cls-5" d="M478.94,430.12c-4.27-1.02-6.1-5.29-5.29-8.95,2.24-9.15,28.47-37.02,37.63-40.27-2.64,12.41-12,53.7-32.34,49.22Z"/>
      <path class="cls-4" d="M751.68,167.75c6.92-25.02,20.34-39.46,42.92-54.71-39.46,9.15-80.54,39.66-107.59,68.54-3.05,22.78-9.56,51.46-16.07,72.41,76.88-10.78,211.12,26.03,269.7,70.17,71.59,54.1,99.66,117.15,107.59,198.31,27.46,12.61,75.87,39.05,101.7,88.07,8.95-35.8-3.66-70.17-21.76-101.7,23.39,2.24,34.58,9.56,55.93,25.83-25.02-63.46-67.53-120.2-110.03-160.48,30.1-24.61,84-9.15,120,6.1-26.24-34.17-103.32-73.83-145.43-86.24,36.81-23.8,137.09-46.17,190.78-50.44-100.88-15.05-222.51-8.95-284.75.81,11.39-9.97,21.97-16.07,44.95-19.53-22.78-4.88-35.19-6.71-66.31-4.27,13.22-11.8,33.36-21.15,50.64-27.05,6.51-2.24,58.17-16.07,58.58-16.27-75.25-10.37-156,1.63-207.46,20.54,14.64-41.49,60.2-58.17,100.68-72.2-54.31,1.42-136.27,17.9-184.07,42.1Z"/>
    </g>
  </g>
</svg>