<?xml version="1.0" encoding="UTF-8" standalone="no"?>
<!DOCTYPE svg PUBLIC "-//W3C//DTD SVG 1.1//EN" "http://www.w3.org/Graphics/SVG/1.1/DTD/svg11.dtd">
<svg width="100%" height="100%" viewBox="0 0 1432 384" version="1.1" xmlns="http://www.w3.org/2000/svg" xmlns:xlink="http://www.w3.org/1999/xlink" xml:space="preserve" xmlns:serif="http://www.serif.com/" style="fill-rule:evenodd;clip-rule:evenodd;stroke-linejoin:round;stroke-miterlimit:2;">
    <g transform="matrix(1,0,0,1,5,-1324.16)">
        <path d="M38.59,1535.76L35.54,1438.54L17.44,1435.08L15,1366.94L90.66,1344.16L239.75,1363.08L256.63,1379.15L270.46,1366.34L423.41,1378.14L468.16,1420.65L469.18,1482.48L455.76,1515.43L469.59,1536.58L526.74,1383.02L605.25,1385.05L645.11,1502.81L653.04,1427.76L699.01,1386.06L791.96,1385.65L824.91,1415.96L859.69,1384.43L952.84,1381.18L978.67,1404.37L979.48,1379.96L1073.24,1374.06L1099.48,1408.64L1101.11,1371.83L1198.33,1362.47L1208.7,1372.03L1221.92,1359.83L1310.4,1347.83L1367.76,1367.36L1406.61,1398.68L1404.17,1441.8L1377.53,1447.7L1406,1469.46L1402.14,1548.38L1356.38,1602.48L1264.85,1626.68L1226.21,1595.36L1225.19,1635.63L1150.34,1650.07L1116.37,1590.27L1115.15,1655.97L1001.86,1671.02L995.35,1648.65L971.96,1674.28L868.84,1682.42L844.23,1658.01L844.03,1683.64L697.38,1687.71L675.62,1669.81L675.62,1687.91L550.13,1685.47L550.54,1629.74L538.74,1685.06C431.35,1683.03 325.79,1671.43 221.65,1651.91L221.45,1622.01L190.74,1646.42L23.35,1607.98L20.71,1531.1C26.61,1532.93 32.51,1534.35 38.61,1535.78L38.59,1535.76Z" style="fill:rgb(235,103,29);fill-rule:nonzero;"/>
        <path d="M488.3,1428.97L507.996,1376.04L527.257,1363.03L605.767,1365.06L624.194,1378.64L637.326,1417.43L639.603,1412.95L685.573,1371.25L698.922,1366.06L791.872,1365.65L805.5,1370.93L825.008,1388.88L846.257,1369.61L858.993,1364.44L952.143,1361.19L966.201,1366.3L969.358,1369.13L978.224,1360L1071.98,1354.1L1089.17,1361.97L1089.38,1362.25L1099.19,1351.92L1196.41,1342.56L1207.21,1346.19L1208.36,1345.13L1219.23,1340.01L1307.71,1328.01L1316.85,1328.9L1374.21,1348.43L1380.31,1351.79L1419.16,1383.11L1426.58,1399.81L1424.14,1442.93L1416.29,1452.15L1418.14,1453.57L1425.98,1470.44L1422.12,1549.36L1417.41,1561.3L1371.65,1615.4L1361.49,1621.82L1269.96,1646.02L1252.26,1642.22L1245.01,1636.34L1228.98,1655.27L1154.13,1669.71L1132.95,1659.95L1132.55,1659.25L1117.78,1675.8L1004.49,1690.85L991.594,1682.43L986.733,1687.76L973.534,1694.22L870.414,1702.36L854.756,1696.62L853.084,1694.96L844.585,1703.63L697.935,1707.7L684.674,1703.16L682.173,1701.1L675.231,1707.91L549.741,1705.47L544.556,1700.14L538.362,1705.06C429.852,1703.01 323.191,1691.29 217.965,1671.57L207.301,1658.81L203.185,1662.08L186.264,1665.91L18.874,1627.47L3.362,1608.67L0.722,1531.79L18.041,1518.56L16.052,1455.18L13.685,1454.72L-2.547,1435.8L-4.987,1367.66L9.234,1347.79L84.894,1325.01L93.178,1324.32L242.268,1343.24L253.54,1348.6L256.818,1351.71L256.869,1351.67L271.998,1346.4L424.948,1358.2L437.185,1363.64L481.935,1406.15L488.157,1420.32L488.3,1428.97ZM38.59,1535.76L38.61,1535.78C32.51,1534.35 26.61,1532.93 20.71,1531.1L23.35,1607.98L190.74,1646.42L221.45,1622.01L221.65,1651.91C325.79,1671.43 431.35,1683.03 538.74,1685.06L550.54,1629.74L550.13,1685.47L675.62,1687.91L675.62,1669.81L697.38,1687.71L844.03,1683.64L844.23,1658.01L868.84,1682.42L971.96,1674.28L995.35,1648.65L1001.86,1671.02L1115.15,1655.97L1116.37,1590.27L1150.34,1650.07L1225.19,1635.63L1226.21,1595.36L1264.85,1626.68L1356.38,1602.48L1402.14,1548.38L1406,1469.46L1377.53,1447.7L1404.17,1441.8L1406.61,1398.68L1367.76,1367.36L1310.4,1347.83L1221.92,1359.83L1208.7,1372.03L1198.33,1362.47L1101.11,1371.83L1099.48,1408.64L1073.24,1374.06L979.48,1379.96L978.67,1404.37L952.84,1381.18L859.69,1384.43L824.91,1415.96L791.96,1385.65L699.01,1386.06L653.04,1427.76L645.11,1502.81L605.25,1385.05L526.74,1383.02L469.59,1536.58L455.76,1515.43L469.18,1482.48L468.16,1420.65L423.41,1378.14L270.46,1366.34L256.63,1379.15L239.75,1363.08L90.66,1344.16L15,1366.94L17.44,1435.08L35.54,1438.54L38.59,1535.76Z" style="fill:white;"/>
    </g>
    <g transform="matrix(1,0,0,1,5,-1324.16)">
        <path d="M162.46,1440.98C162.66,1451.96 162.87,1463.15 163.07,1474.13C163.27,1485.11 163.48,1496.3 163.88,1507.49C164.08,1518.47 164.08,1529.66 164.29,1540.64C164.49,1551.62 164.7,1562.81 165.1,1574C160.22,1577.86 155.74,1581.53 150.66,1585.19C129.1,1580.92 107.74,1576.65 86.39,1572.17C85.98,1558.95 85.58,1545.73 85.37,1532.51C85.17,1519.49 84.56,1506.27 84.35,1493.05C84.15,1479.83 83.54,1466.61 83.13,1453.39C82.72,1440.17 82.32,1427.15 81.91,1413.93C103.27,1417.18 124.62,1420.44 145.98,1423.29C151.47,1429.39 156.76,1435.09 162.45,1440.99L162.46,1440.98ZM194.19,1438.74C183,1426.74 171.61,1414.54 160.22,1402.54C117.91,1397.05 75.41,1390.95 33.3,1384.23C33.71,1391.55 33.91,1398.87 34.11,1405.99C39.4,1407.01 44.48,1407.82 49.97,1408.84C50.38,1421.65 50.78,1434.67 51.19,1447.69C51.6,1460.71 52.21,1473.72 52.61,1486.94C53.02,1499.96 53.42,1512.97 53.63,1525.99C54.04,1539.01 54.65,1552.23 55.05,1565.24C49.56,1564.02 44.47,1562.8 39.39,1561.58C39.8,1568.7 39.8,1575.82 40,1582.94C81.29,1592.7 122.58,1601.86 164.27,1609.99C174.85,1601.85 185.83,1593.72 196.81,1585.38C196.4,1573.18 196.2,1560.77 196,1548.57C195.8,1536.37 195.59,1524.16 195.39,1512.16C195.19,1499.96 194.98,1487.75 194.78,1475.55C194.58,1463.14 194.37,1450.94 194.17,1438.74L194.19,1438.74Z" style="fill:white;fill-rule:nonzero;"/>
    </g>
    <g transform="matrix(1,0,0,1,5,-1324.16)">
        <path d="M377.24,1463.35C377.44,1477.18 377.44,1491.01 377.65,1505.05C371.96,1510.13 366.46,1515.22 360.57,1520.1C339.82,1518.07 318.47,1516.24 297.52,1513.79C297.52,1501.79 297.32,1489.79 297.32,1477.99C297.12,1465.99 297.12,1454.19 296.91,1442.19C318.47,1444.22 340.03,1446.05 361.79,1447.68C366.87,1452.97 372.16,1458.26 377.25,1463.34L377.24,1463.35ZM429.72,1622.4C424.43,1621.99 419.35,1621.59 414.06,1621.18C408.36,1608.16 401.86,1594.94 395.96,1581.93C390.06,1568.71 383.96,1555.49 378.06,1542.47C387.62,1533.72 397.18,1525.18 406.94,1516.44C406.94,1497.52 406.94,1478.41 406.74,1459.49C395.96,1447.9 384.77,1436.1 373.99,1424.71C331.07,1421.46 288.57,1417.79 245.85,1413.73C245.85,1421.46 246.26,1429.39 246.26,1437.12C252.36,1437.73 258.46,1438.34 264.57,1439.15C264.77,1452.98 264.98,1466.61 264.98,1480.44C265.18,1494.27 265.39,1508.3 265.39,1522.14C265.59,1535.77 265.8,1549.6 265.8,1563.43C265.8,1577.26 266.21,1591.29 266.41,1604.92C260.31,1604.11 254.21,1603.09 248.1,1602.28C248.3,1610.01 248.3,1617.53 248.3,1625.26C269.25,1628.51 290.4,1631.36 311.55,1634.21C311.55,1626.48 311.35,1618.75 311.35,1611.02C306.88,1610.61 302.4,1609.8 298.13,1609.39C298.13,1597.39 297.93,1585.59 297.93,1573.59C297.93,1561.59 297.73,1549.59 297.73,1537.79C314.81,1539.82 332.31,1541.45 349.8,1543.28C355.49,1555.89 361.19,1568.5 366.88,1581.11C372.57,1593.72 378.27,1606.33 384.17,1618.94C379.09,1618.53 374.2,1617.92 369.32,1617.52C369.12,1625.45 369.32,1633.18 369.32,1640.91C389.46,1642.94 409.18,1644.77 429.32,1646.4C429.73,1638.06 429.73,1630.33 429.73,1622.4L429.72,1622.4Z" style="fill:white;fill-rule:nonzero;"/>
    </g>
    <g transform="matrix(1,0,0,1,5,-1324.16)">
        <path d="M557.45,1459.89C562.53,1476.57 567.62,1493.25 572.7,1509.92C577.78,1526.6 583.07,1543.28 588.16,1559.75C565.58,1559.14 543.21,1558.12 520.84,1557.31C526.13,1541.04 531.62,1524.77 536.91,1508.7C542.2,1492.43 547.69,1476.16 553.18,1459.68C554.4,1459.68 555.82,1459.68 557.45,1459.88L557.45,1459.89ZM576.97,1435.89C563.34,1435.48 549.72,1435.08 536.09,1434.67C530.6,1450.74 525.11,1467.01 519.82,1483.08C514.53,1499.35 509.24,1515.62 503.75,1531.69C498.46,1547.55 492.97,1563.62 487.68,1579.49C482.39,1595.35 476.9,1611.42 471.61,1627.49C466.53,1627.08 461.64,1626.88 456.56,1626.47C456.56,1634.2 456.76,1641.93 456.56,1649.66C476.29,1650.88 495.81,1652.3 515.75,1653.32L515.75,1629.93C509.24,1629.52 502.73,1629.12 496.43,1628.91C501.92,1611.83 507.82,1594.74 513.11,1577.45C540.16,1578.67 567.42,1579.48 594.47,1580.5C599.96,1598.2 605.25,1615.89 610.74,1633.38C604.43,1633.18 598.13,1633.18 592.03,1632.97L592.03,1656.36C612.57,1656.77 633.32,1657.17 654.27,1657.38C654.27,1649.65 654.27,1641.72 654.47,1633.79L638.2,1633.79C633.12,1617.32 628.03,1600.64 622.95,1584.16C617.87,1567.69 612.78,1551.41 607.7,1534.94C602.62,1518.47 597.33,1501.79 592.24,1485.11C587.16,1468.84 582.07,1452.36 576.99,1435.89L576.97,1435.89Z" style="fill:white;fill-rule:nonzero;"/>
    </g>
    <g transform="matrix(1,0,0,1,5,-1324.16)">
        <path d="M819.62,1544.1C805.99,1544.51 792.37,1544.91 778.94,1545.12C778.74,1551.63 778.74,1558.14 778.53,1564.65C783.61,1564.65 788.5,1564.45 793.58,1564.24C793.38,1575.83 793.38,1587.22 793.38,1598.61C793.38,1610 793.18,1621.39 792.97,1632.78C770.6,1633.39 748.02,1633.8 725.85,1634.2C720.77,1628.91 715.68,1623.83 710.6,1618.54C710.6,1606.74 710.6,1594.95 710.8,1583.15C711,1571.56 711,1559.76 711.21,1547.96C711.21,1536.16 711.01,1524.37 711.21,1512.57C711.41,1500.77 711.41,1488.98 711.62,1477.18C716.7,1472.1 721.99,1467.01 727.08,1461.93C744.78,1461.73 762.06,1461.73 779.76,1461.32C784.44,1466.2 789.52,1471.29 794.61,1476.17C794.61,1478.61 794.41,1480.85 794.41,1483.29C802.95,1483.09 811.49,1482.88 820.44,1482.68C820.44,1478.21 820.44,1473.73 820.24,1469.05C809.46,1458.27 798.88,1447.49 788.1,1436.51C763.08,1436.92 738.27,1437.12 713.25,1437.12C701.86,1448.1 690.67,1459.29 679.69,1470.27C679.69,1483.08 679.49,1495.9 679.49,1508.71L679.49,1547.35C679.49,1560.16 679.29,1572.98 679.08,1585.59L679.08,1624.03C690.06,1635.01 701.05,1646.2 712.03,1657.18C747.83,1656.77 783.42,1655.76 819.01,1654.74C819.01,1636.23 819.21,1617.72 819.42,1599.21C819.42,1581.11 819.62,1562.6 819.62,1544.09L819.62,1544.1Z" style="fill:white;fill-rule:nonzero;"/>
    </g>
    <g transform="matrix(1,0,0,1,5,-1324.16)">
        <path d="M960.77,1469.86C960.77,1481.45 960.36,1492.84 960.36,1504.23C960.36,1515.62 960.16,1527.21 959.95,1538.6C959.75,1549.99 959.75,1561.38 959.54,1572.77C959.54,1584.16 959.13,1595.75 959.13,1607.14C954.05,1612.83 948.96,1618.33 943.88,1624.02C926.8,1625.24 909.91,1626.46 893.03,1627.68C888.35,1622.8 883.88,1617.92 879.2,1612.83C879.2,1601.24 879.4,1589.64 879.61,1578.05C879.81,1566.46 879.81,1555.07 879.81,1543.47C879.81,1531.87 880.01,1520.28 880.22,1508.69C880.22,1497.1 880.63,1485.5 880.63,1473.91C885.71,1468.62 891,1463.33 896.29,1457.84C912.76,1457.03 929.44,1456.42 945.92,1455.4C951,1460.28 955.89,1465.16 960.77,1469.84L960.77,1469.86ZM991.69,1462.13C980.91,1451.76 970.33,1441.38 959.55,1431.01C934.33,1432.23 909.11,1433.45 883.68,1434.47C872.09,1446.06 860.7,1457.66 849.1,1469.25C848.9,1481.86 848.69,1494.47 848.69,1506.88C848.69,1519.29 848.49,1532.1 848.49,1544.71C848.49,1557.32 848.29,1569.73 848.29,1582.13C848.29,1594.53 847.88,1607.15 847.88,1619.76C858.25,1630.54 868.42,1641.12 878.8,1651.69C904.83,1650.06 930.87,1648.03 956.7,1645.79C967.89,1633.99 978.67,1622.4 989.85,1610.6C989.85,1598.19 990.05,1585.79 990.05,1573.38C990.05,1560.97 990.46,1548.77 990.66,1536.36C990.86,1523.95 991.07,1511.55 991.27,1499.14C991.47,1486.94 991.68,1474.53 991.68,1462.12L991.69,1462.13Z" style="fill:white;fill-rule:nonzero;"/>
    </g>
    <g transform="matrix(1,0,0,1,5,-1324.16)">
        <path d="M1221.72,1409.25C1203.21,1411.49 1184.91,1413.72 1166.4,1415.76C1166.2,1423.29 1165.99,1430.81 1165.99,1438.34C1170.87,1437.73 1176.16,1437.12 1181.24,1436.51C1180.83,1448.1 1180.43,1459.7 1180.22,1471.29C1180.02,1482.88 1179.81,1494.48 1179.41,1506.27C1179.21,1517.86 1178.8,1529.46 1178.6,1541.05C1178.4,1552.64 1178.19,1564.24 1177.79,1576.03C1170.26,1563.83 1162.94,1551.42 1155.62,1538.81C1148.3,1526.4 1141.18,1513.79 1133.86,1501.18C1126.54,1488.37 1118.81,1475.55 1111.28,1462.54C1103.96,1449.52 1096.64,1436.51 1089.11,1423.29C1070.8,1424.92 1052.3,1426.34 1033.99,1427.76C1033.79,1435.49 1033.58,1443.42 1033.58,1451.35C1039.27,1450.94 1045.38,1450.33 1051.28,1449.93C1051.08,1463.76 1050.87,1477.59 1050.67,1491.22C1050.47,1505.05 1050.26,1518.88 1049.86,1532.71C1049.66,1546.34 1049.25,1560.17 1049.05,1573.8C1048.85,1587.63 1048.44,1601.26 1048.44,1615.09C1042.34,1615.9 1036.24,1616.51 1030.34,1617.12C1030.34,1624.65 1030.14,1632.17 1029.93,1639.7C1049.66,1637.26 1068.78,1634.82 1087.9,1632.17C1087.9,1624.64 1088.1,1617.32 1088.31,1609.8C1082.62,1610.61 1076.72,1611.43 1071.23,1612.04C1071.64,1599.02 1071.64,1586.01 1071.84,1572.79C1072.04,1559.77 1072.45,1546.76 1072.65,1533.74C1072.85,1520.72 1073.06,1507.5 1073.26,1494.49C1073.46,1481.47 1073.87,1468.46 1074.07,1455.44C1082,1469.47 1089.93,1483.51 1097.87,1497.54C1105.8,1511.37 1113.73,1525.4 1121.67,1539.03C1129.6,1552.45 1137.33,1566.08 1145.26,1579.3C1153.19,1592.72 1161.12,1605.94 1169.06,1619.16C1179.03,1617.33 1188.79,1615.5 1199.16,1613.47C1199.57,1598.42 1199.77,1583.37 1200.18,1568.32C1200.59,1553.47 1200.99,1538.62 1201.4,1523.57C1201.81,1508.52 1202.21,1493.47 1202.82,1478.42C1203.23,1463.57 1203.63,1448.52 1203.84,1433.67C1209.53,1432.86 1215.23,1432.25 1221.13,1431.43C1221.33,1424.11 1221.54,1416.58 1221.74,1409.26L1221.72,1409.25Z" style="fill:white;fill-rule:nonzero;"/>
    </g>
    <g transform="matrix(1,0,0,1,5,-1324.16)">
        <path d="M1379.96,1483.49C1373.25,1478.61 1366.54,1473.52 1359.62,1468.24C1336.03,1473.53 1311.82,1478.41 1288.03,1483.09C1285.39,1480.85 1282.74,1478.62 1279.89,1476.38C1280.3,1463.16 1280.91,1449.74 1281.31,1436.52C1285.78,1431.44 1290.67,1426.15 1295.55,1421.06C1311.01,1418.42 1326.26,1415.98 1341.72,1413.13C1345.79,1416.59 1349.45,1420.05 1353.72,1423.5C1353.72,1424.72 1353.52,1425.74 1353.52,1426.96C1363.28,1425.13 1373.05,1423.1 1383.01,1421.06C1383.01,1418.21 1383.21,1415.36 1383.42,1412.72C1373.86,1405.4 1364.71,1397.87 1355.35,1390.14C1331.96,1394 1308.16,1397.87 1284.57,1401.53C1273.99,1412.92 1263.42,1424.11 1252.84,1435.7C1252.43,1452.58 1251.82,1469.67 1251.42,1486.55C1258.34,1492.65 1265.66,1498.75 1272.78,1504.65C1296.58,1499.97 1320.17,1495.09 1343.97,1490.01C1346.21,1492.04 1348.44,1494.08 1350.89,1496.11C1350.48,1512.58 1349.67,1529.06 1348.86,1545.53C1343.98,1551.23 1339.1,1556.92 1334.22,1562.61C1319.78,1566.27 1305.14,1569.93 1290.69,1573.39C1286.22,1569.93 1281.94,1566.27 1277.47,1562.61C1277.67,1559.36 1277.67,1555.9 1277.88,1552.64C1268.32,1554.67 1258.76,1556.71 1249.41,1558.74C1249.21,1563.62 1249.21,1568.5 1249,1573.38C1258.76,1581.52 1268.53,1589.24 1278.49,1596.97C1300.86,1591.89 1323.24,1585.99 1345.2,1580.29C1355.98,1567.68 1366.96,1554.87 1377.95,1542.46C1378.15,1532.7 1378.76,1522.93 1379.17,1512.97C1379.17,1503 1379.58,1493.24 1379.98,1483.48L1379.96,1483.49Z" style="fill:white;fill-rule:nonzero;"/>
    </g>
</svg>
